<?xml version="1.0" encoding="utf-8"?>
<!-- Generator: Adobe Illustrator 25.0.1, SVG Export Plug-In . SVG Version: 6.00 Build 0)  -->
<svg version="1.0" id="katman_1" xmlns="http://www.w3.org/2000/svg" xmlns:xlink="http://www.w3.org/1999/xlink" x="0px" y="0px"
	 viewBox="0 0 224.1 153.8" style="enable-background:new 0 0 224.1 153.8;" xml:space="preserve">
<style type="text/css">
	.st0{fill:url(#SVGID_1_);}
	.st1{fill:url(#SVGID_2_);}
	.st2{fill:url(#SVGID_3_);}
	.st3{fill:url(#SVGID_4_);}
	.st4{fill:url(#SVGID_5_);}
	.st5{fill:url(#SVGID_6_);}
	.st6{fill:url(#SVGID_7_);}
	.st7{fill:url(#SVGID_8_);}
	.st8{fill:#FFFFFF;}
	.st9{fill:#564C4D;}
	.st10{fill:url(#SVGID_9_);}
	.st11{fill:url(#SVGID_10_);}
	.st12{fill:url(#SVGID_11_);}
	.st13{fill:url(#SVGID_12_);}
	.st14{fill:url(#SVGID_13_);}
	.st15{fill:url(#SVGID_14_);}
	.st16{fill:url(#SVGID_15_);}
	.st17{fill:url(#SVGID_16_);}
	.st18{fill:url(#SVGID_17_);}
	.st19{fill:url(#SVGID_18_);}
	.st20{fill:url(#SVGID_19_);}
	.st21{fill:url(#SVGID_20_);}
	.st22{fill:url(#SVGID_21_);}
	.st23{fill:url(#SVGID_22_);}
	.st24{fill:url(#SVGID_23_);}
	.st25{fill:url(#SVGID_24_);}
	.st26{fill:url(#SVGID_25_);}
	.st27{fill:url(#SVGID_26_);}
	.st28{fill:url(#SVGID_27_);}
	.st29{fill:url(#SVGID_28_);}
	.st30{opacity:0.7;}
	.st31{fill:url(#SVGID_29_);}
	.st32{fill:url(#SVGID_30_);}
	.st33{fill:url(#SVGID_31_);}
	.st34{fill:url(#SVGID_32_);}
	.st35{fill:url(#SVGID_33_);}
	.st36{fill:url(#SVGID_34_);}
	.st37{fill:url(#SVGID_35_);}
	.st38{fill:url(#SVGID_36_);}
	.st39{fill:url(#SVGID_37_);}
	.st40{fill:url(#SVGID_38_);}
	.st41{fill:url(#SVGID_39_);}
	.st42{fill:url(#SVGID_40_);}
	.st43{fill:url(#SVGID_41_);}
	.st44{fill:url(#SVGID_42_);}
	.st45{fill:url(#SVGID_43_);}
	.st46{fill:url(#SVGID_44_);}
	.st47{fill:url(#SVGID_45_);}
	.st48{fill:url(#SVGID_46_);}
	.st49{fill:url(#SVGID_47_);}
	.st50{fill:url(#SVGID_48_);}
	.st51{fill:url(#SVGID_49_);}
	.st52{fill:url(#SVGID_50_);}
	.st53{fill:url(#SVGID_51_);}
	.st54{fill:url(#SVGID_52_);}
	.st55{fill:url(#SVGID_53_);}
	.st56{fill:url(#SVGID_54_);}
	.st57{fill:url(#SVGID_55_);}
	.st58{fill:url(#SVGID_56_);}
	.st59{fill:url(#SVGID_57_);}
	.st60{fill:url(#SVGID_58_);}
	.st61{fill:url(#SVGID_59_);}
	.st62{fill:url(#SVGID_60_);}
	.st63{fill:url(#SVGID_61_);}
	.st64{fill:url(#SVGID_62_);}
	.st65{fill:url(#SVGID_63_);}
	.st66{fill:url(#SVGID_64_);}
	.st67{fill:url(#SVGID_65_);}
	.st68{fill:url(#SVGID_66_);}
	.st69{fill:url(#SVGID_67_);}
	.st70{fill:url(#SVGID_68_);}
	.st71{fill:url(#SVGID_69_);}
	.st72{fill:url(#SVGID_70_);}
	.st73{fill:url(#SVGID_71_);}
	.st74{fill:url(#SVGID_72_);}
	.st75{fill:url(#SVGID_73_);}
	.st76{fill:url(#SVGID_74_);}
	.st77{fill:url(#SVGID_75_);}
	.st78{fill:url(#SVGID_76_);}
	.st79{fill:url(#SVGID_77_);}
	.st80{fill:url(#SVGID_78_);}
	.st81{fill:url(#SVGID_79_);}
	.st82{fill:url(#SVGID_80_);}
	.st83{fill:url(#SVGID_81_);}
	.st84{fill:url(#SVGID_82_);}
	.st85{fill:url(#SVGID_83_);}
	.st86{fill:url(#SVGID_84_);}
	.st87{fill:url(#SVGID_85_);}
	.st88{fill:url(#SVGID_86_);}
	.st89{fill:url(#SVGID_87_);}
	.st90{fill:url(#SVGID_88_);}
	.st91{fill:url(#SVGID_89_);}
	.st92{fill:url(#SVGID_90_);}
	.st93{fill:url(#SVGID_91_);}
</style>
<g id="katman_2_1_">
	<g id="katman_1-2">
		
			<linearGradient id="SVGID_1_" gradientUnits="userSpaceOnUse" x1="22.4031" y1="102.3512" x2="94.6031" y2="77.1512" gradientTransform="matrix(1 0 0 -1 0 155.2763)">
			<stop  offset="0" style="stop-color:#00BEE7"/>
			<stop  offset="0.17" style="stop-color:#20AFDC"/>
			<stop  offset="0.33" style="stop-color:#0087B4"/>
			<stop  offset="0.5" style="stop-color:#0073A1"/>
			<stop  offset="0.67" style="stop-color:#00527D"/>
			<stop  offset="0.83" style="stop-color:#144069"/>
			<stop  offset="1" style="stop-color:#192951"/>
		</linearGradient>
		<path class="st0" d="M75.7,88.6c-7.1-1.1-13.5-5-17.8-10.9L94.3,83c0-0.2-0.1-0.3-0.1-0.4L94,82.2c-0.2-0.6-0.4-1.3-0.6-2
			l-13.2-1.9c2.2-0.4,4.3-1.1,6.2-2.1c0,0-8,1.9-22.1-0.2c-7.1-1.1-13.5-5-17.7-10.9l45.6,6.7c0-0.1,0-0.2,0-0.3c0-0.3,0-0.6,0-0.8
			v-0.9l0,0c0-0.2,0-0.4,0-0.5v-0.1l-23.6-3.5c2.2-0.4,4.3-1.1,6.3-2.2c0,0-7.9,1.9-22.1-0.2c-7.1-1.1-13.5-5-17.8-10.9L94.8,61
			c0.4-0.5,0.8-1.1,1.2-1.5c0.3-0.3,0.6-0.6,0.9-0.8l-67-9.8l1,1.8c2.6,4.5,6.1,8.2,10.5,11l0,0l1,1.8c2.5,4.4,6.1,8.1,10.4,10.8
			l0,0l1,1.8c4.6,8.1,12.6,13.7,21.9,15.2c14.3,2.1,22.1-2.5,22.1-2.5S89.9,90.7,75.7,88.6z"/>
		
			<linearGradient id="SVGID_2_" gradientUnits="userSpaceOnUse" x1="24.4172" y1="108.1158" x2="96.6172" y2="82.9158" gradientTransform="matrix(1 0 0 -1 0 155.2763)">
			<stop  offset="0" style="stop-color:#00BEE7"/>
			<stop  offset="0.17" style="stop-color:#20AFDC"/>
			<stop  offset="0.33" style="stop-color:#0087B4"/>
			<stop  offset="0.5" style="stop-color:#0073A1"/>
			<stop  offset="0.67" style="stop-color:#00527D"/>
			<stop  offset="0.83" style="stop-color:#144069"/>
			<stop  offset="1" style="stop-color:#192951"/>
		</linearGradient>
		<path class="st1" d="M37.4,53.6L61.3,57C61.3,57,45.7,60.6,37.4,53.6z"/>
		
			<linearGradient id="SVGID_3_" gradientUnits="userSpaceOnUse" x1="21.5492" y1="99.9001" x2="93.7492" y2="74.7001" gradientTransform="matrix(1 0 0 -1 0 155.2763)">
			<stop  offset="0" style="stop-color:#00BEE7"/>
			<stop  offset="0.17" style="stop-color:#20AFDC"/>
			<stop  offset="0.33" style="stop-color:#0087B4"/>
			<stop  offset="0.5" style="stop-color:#0073A1"/>
			<stop  offset="0.67" style="stop-color:#00527D"/>
			<stop  offset="0.83" style="stop-color:#144069"/>
			<stop  offset="1" style="stop-color:#192951"/>
		</linearGradient>
		<path class="st2" d="M48.9,66.4l18.6,2.6C67.5,69.1,55.4,71.9,48.9,66.4z"/>
		
			<linearGradient id="SVGID_4_" gradientUnits="userSpaceOnUse" x1="18.768" y1="91.9366" x2="90.968" y2="66.7366" gradientTransform="matrix(1 0 0 -1 0 155.2763)">
			<stop  offset="0" style="stop-color:#00BEE7"/>
			<stop  offset="0.17" style="stop-color:#20AFDC"/>
			<stop  offset="0.33" style="stop-color:#0087B4"/>
			<stop  offset="0.5" style="stop-color:#0073A1"/>
			<stop  offset="0.67" style="stop-color:#00527D"/>
			<stop  offset="0.83" style="stop-color:#144069"/>
			<stop  offset="1" style="stop-color:#192951"/>
		</linearGradient>
		<path class="st3" d="M60.4,79.2l16.3,2.3C76.7,81.5,66.1,84,60.4,79.2z"/>
		
			<linearGradient id="SVGID_5_" gradientUnits="userSpaceOnUse" x1="-128.9047" y1="102.3575" x2="-56.7047" y2="77.1575" gradientTransform="matrix(-1 0 0 -1 72.147 155.2763)">
			<stop  offset="0" style="stop-color:#00BEE7"/>
			<stop  offset="0.17" style="stop-color:#20AFDC"/>
			<stop  offset="0.33" style="stop-color:#0087B4"/>
			<stop  offset="0.5" style="stop-color:#0073A1"/>
			<stop  offset="0.67" style="stop-color:#00527D"/>
			<stop  offset="0.83" style="stop-color:#144069"/>
			<stop  offset="1" style="stop-color:#192951"/>
		</linearGradient>
		<path class="st4" d="M147.7,88.6c7.1-1.1,13.5-5,17.7-10.9L129.2,83l0.1-0.4l0.1-0.4c0.2-0.6,0.4-1.3,0.6-2l13.2-1.9
			c-2.2-0.4-4.3-1.1-6.2-2.1c0,0,8,1.9,22.1-0.2c7.1-1.1,13.5-5,17.7-10.9l-45.6,6.7c0-0.1,0-0.2,0-0.3c0-0.3,0-0.6,0-0.8v-0.9l0,0
			c0-0.2,0-0.4,0-0.5V69l23.6-3.4c-2.2-0.4-4.3-1.1-6.3-2.2c0,0,8,1.9,22.1-0.2c7.1-1.1,13.5-5,17.7-10.9L128.6,61
			c-0.4-0.5-0.8-1.1-1.2-1.5c-0.3-0.3-0.6-0.6-0.9-0.8l67-9.8l-1.1,1.8c-2.6,4.5-6.1,8.2-10.5,11l0,0l-1.1,1.8
			c-2.5,4.4-6.1,8.1-10.4,10.9l0,0l-1.1,1.8c-4.6,8.1-12.6,13.7-21.8,15.2c-14.3,2.1-22.1-2.5-22.1-2.5S133.6,90.7,147.7,88.6z"/>
		
			<linearGradient id="SVGID_6_" gradientUnits="userSpaceOnUse" x1="-126.8925" y1="108.1166" x2="-54.6925" y2="82.9166" gradientTransform="matrix(-1 0 0 -1 72.147 155.2763)">
			<stop  offset="0" style="stop-color:#00BEE7"/>
			<stop  offset="0.17" style="stop-color:#20AFDC"/>
			<stop  offset="0.33" style="stop-color:#0087B4"/>
			<stop  offset="0.5" style="stop-color:#0073A1"/>
			<stop  offset="0.67" style="stop-color:#00527D"/>
			<stop  offset="0.83" style="stop-color:#144069"/>
			<stop  offset="1" style="stop-color:#192951"/>
		</linearGradient>
		<path class="st5" d="M186.1,53.6L162.2,57C162.2,57,177.8,60.6,186.1,53.6z"/>
		
			<linearGradient id="SVGID_7_" gradientUnits="userSpaceOnUse" x1="-129.7618" y1="99.8973" x2="-57.5618" y2="74.6973" gradientTransform="matrix(-1 0 0 -1 72.147 155.2763)">
			<stop  offset="0" style="stop-color:#00BEE7"/>
			<stop  offset="0.17" style="stop-color:#20AFDC"/>
			<stop  offset="0.33" style="stop-color:#0087B4"/>
			<stop  offset="0.5" style="stop-color:#0073A1"/>
			<stop  offset="0.67" style="stop-color:#00527D"/>
			<stop  offset="0.83" style="stop-color:#144069"/>
			<stop  offset="1" style="stop-color:#192951"/>
		</linearGradient>
		<path class="st6" d="M174.5,66.4l-18.6,2.6C155.9,69.1,168.1,71.9,174.5,66.4z"/>
		
			<linearGradient id="SVGID_8_" gradientUnits="userSpaceOnUse" x1="-132.5415" y1="91.938" x2="-60.3415" y2="66.738" gradientTransform="matrix(-1 0 0 -1 72.147 155.2763)">
			<stop  offset="0" style="stop-color:#00BEE7"/>
			<stop  offset="0.17" style="stop-color:#20AFDC"/>
			<stop  offset="0.33" style="stop-color:#0087B4"/>
			<stop  offset="0.5" style="stop-color:#0073A1"/>
			<stop  offset="0.67" style="stop-color:#00527D"/>
			<stop  offset="0.83" style="stop-color:#144069"/>
			<stop  offset="1" style="stop-color:#192951"/>
		</linearGradient>
		<path class="st7" d="M163.1,79.2l-16.3,2.3C146.7,81.5,157.4,84,163.1,79.2z"/>
		<path class="st8" d="M53.5,74.5l1.1,0.8c0,0,2,4.5,9.3,10.4C55.4,79.6,53.5,74.5,53.5,74.5z"/>
		<path class="st8" d="M42.2,61.9l1.1,0.8c0,0,2.1,4.5,9.3,10.4C44.1,67,42.2,61.9,42.2,61.9z"/>
		<path class="st8" d="M31,49.6l38.1,5.6l-36.9-4.8c0,0,2,4.5,9.3,10.4C32.9,54.7,31,49.6,31,49.6z"/>
		<path class="st9" d="M149.7,43.3L149.7,43.3L149.7,43.3z"/>
		<path class="st8" d="M169.9,74.5l-1.1,0.8c0,0-2.1,4.5-9.3,10.4C168,79.6,169.9,74.5,169.9,74.5z"/>
		<path class="st8" d="M181.3,61.9l-1.1,0.8c0,0-2.1,4.5-9.2,10.4C179.3,67,181.3,61.9,181.3,61.9z"/>
		<path class="st8" d="M192.4,49.6l-38,5.6l36.9-4.8c0,0-2.1,4.5-9.3,10.4C190.5,54.7,192.4,49.6,192.4,49.6z"/>
		
			<linearGradient id="SVGID_9_" gradientUnits="userSpaceOnUse" x1="137.9904" y1="80.1825" x2="56.3504" y2="114.9925" gradientTransform="matrix(1 0 0 -1 0 155.2763)">
			<stop  offset="1.000000e-02" style="stop-color:#891A1C"/>
			<stop  offset="0.23" style="stop-color:#B41D22"/>
			<stop  offset="0.51" style="stop-color:#C61D23"/>
			<stop  offset="1" style="stop-color:#EF4E23"/>
		</linearGradient>
		<path class="st10" d="M81.6,50.2c0.1-0.2,0.1-0.3,0.2-0.5c0-0.1,0.1-0.3,0.1-0.4s0-0.3,0-0.3s-0.1,0.1-0.2,0.3
			c-0.1,0.2-0.3,0.5-0.5,0.7c-0.2,0.3-0.5,0.6-0.8,0.8c-0.2,0.1-0.3,0.2-0.5,0.3l-0.3,0.1h-0.1h-0.1h-0.3c-0.1,0-0.2,0-0.3,0
			c-0.2,0-0.4-0.1-0.6-0.2c-0.3-0.1-0.6-0.4-0.8-0.6c-0.2-0.2-0.3-0.4-0.5-0.6c0-0.1,0-0.1,0-0.2v-0.1v0.1c0,0.1,0,0.2,0,0.2
			c0,0.1,0,0.3,0.1,0.4c0,0.2,0.1,0.3,0.2,0.5c0.1,0.2,0.2,0.3,0.3,0.5c0.2,0.2,0.3,0.3,0.5,0.4c0.5,0.2,1,0.3,1.5,0.3h0.2l0.2-0.1
			c0.1-0.1,0.2-0.1,0.3-0.2c0.2-0.1,0.4-0.3,0.6-0.4C81.1,50.9,81.4,50.6,81.6,50.2z"/>
		
			<linearGradient id="SVGID_10_" gradientUnits="userSpaceOnUse" x1="143.3092" y1="92.6564" x2="61.6692" y2="127.4664" gradientTransform="matrix(1 0 0 -1 0 155.2763)">
			<stop  offset="1.000000e-02" style="stop-color:#891A1C"/>
			<stop  offset="0.23" style="stop-color:#B41D22"/>
			<stop  offset="0.51" style="stop-color:#C61D23"/>
			<stop  offset="1" style="stop-color:#EF4E23"/>
		</linearGradient>
		<path class="st11" d="M93.1,41.8c0.7-0.9,2-1.1,2.9-0.4c0.1,0.1,0.2,0.2,0.2,0.3c0.2-0.6,0-1.1-0.4-1.6c-0.9-0.7-2.2-0.5-2.9,0.4
			c-0.8,0.7-1,1.8-0.6,2.7C92.5,42.7,92.7,42.2,93.1,41.8z"/>
		
			<linearGradient id="SVGID_11_" gradientUnits="userSpaceOnUse" x1="138.8165" y1="82.1235" x2="57.1765" y2="116.9335" gradientTransform="matrix(1 0 0 -1 0 155.2763)">
			<stop  offset="1.000000e-02" style="stop-color:#891A1C"/>
			<stop  offset="0.23" style="stop-color:#B41D22"/>
			<stop  offset="0.51" style="stop-color:#C61D23"/>
			<stop  offset="1" style="stop-color:#EF4E23"/>
		</linearGradient>
		<path class="st12" d="M77.5,47.3c-0.5,1.6,0,3.2,1.1,3.5c1.1,0.4,2.4-0.7,2.9-2.3s0-3.2-1.1-3.5C79.4,44.6,78,45.6,77.5,47.3z"/>
		
			<linearGradient id="SVGID_12_" gradientUnits="userSpaceOnUse" x1="151.0565" y1="110.8335" x2="69.4165" y2="145.6435" gradientTransform="matrix(1 0 0 -1 0 155.2763)">
			<stop  offset="1.000000e-02" style="stop-color:#891A1C"/>
			<stop  offset="0.23" style="stop-color:#B41D22"/>
			<stop  offset="0.51" style="stop-color:#C61D23"/>
			<stop  offset="1" style="stop-color:#EF4E23"/>
		</linearGradient>
		<path class="st13" d="M127.3,34.1c-0.4-0.9-1.1-1.7-2-2.2c-1.5-0.9-3.1-1-3.5-0.3c-0.3,0.6,0.1,1.5,1,2.3
			c-0.1-0.3-0.1-0.6,0.1-0.8c0.4-0.8,2-0.6,3.5,0.3C126.7,33.6,127,33.9,127.3,34.1z"/>
		
			<linearGradient id="SVGID_13_" gradientUnits="userSpaceOnUse" x1="152.0692" y1="113.1897" x2="70.4292" y2="147.9997" gradientTransform="matrix(1 0 0 -1 0 155.2763)">
			<stop  offset="1.000000e-02" style="stop-color:#891A1C"/>
			<stop  offset="0.23" style="stop-color:#B41D22"/>
			<stop  offset="0.51" style="stop-color:#C61D23"/>
			<stop  offset="1" style="stop-color:#EF4E23"/>
		</linearGradient>
		<path class="st14" d="M142.8,39c0.7,0.6,1.5,0.9,1.8,0.6s0.1-1.1-0.6-1.8c-0.7-0.7-1.5-0.9-1.8-0.6
			C141.9,37.5,142.2,38.3,142.8,39z"/>
		
			<linearGradient id="SVGID_14_" gradientUnits="userSpaceOnUse" x1="147.2104" y1="101.806" x2="65.5704" y2="136.616" gradientTransform="matrix(1 0 0 -1 0 155.2763)">
			<stop  offset="1.000000e-02" style="stop-color:#891A1C"/>
			<stop  offset="0.23" style="stop-color:#B41D22"/>
			<stop  offset="0.51" style="stop-color:#C61D23"/>
			<stop  offset="1" style="stop-color:#EF4E23"/>
		</linearGradient>
		<path class="st15" d="M93.1,35.5c0-0.1,0.1-0.1,0.1-0.2c0.1-0.1,0.2-0.3,0.3-0.5l0.2-0.3c0-0.1,0.1-0.2,0.1-0.3
			c0.1-0.2,0.2-0.4,0.2-0.7c0-0.1,0-0.1,0-0.2c0.1,0.1,0.2,0.1,0.3,0.1c0.3,0,0.6,0,0.8,0v0.3c0,0.1,0,0.3,0,0.5
			c0,0.6,0.1,1.3,0.1,1.3s0.2-0.6,0.4-1.2c0.1-0.3,0.2-0.6,0.2-0.9v0c0.6-0.2,1.1-0.4,1.7-0.7l1.4,1.2l-0.6-1.5
			c0.4-0.3,0.7-0.6,1.1-0.9h0.1l0.2,0.1c0.1,0.1,0.2,0.1,0.3,0.1c0.1,0,0.3,0,0.4,0c0.1,0,0.2,0,0.3,0c0.1,0,0.1,0,0.2-0.1h0.1h0
			c-0.1,0-0.1,0-0.2,0c-0.1,0-0.2,0-0.3-0.1l-0.3-0.2c-0.1-0.1-0.2-0.1-0.3-0.2L99.8,31l0.2-0.4c0.3-0.4,0.4-0.9,0.4-1.3h0.8
			c0.4,0,0.7-0.1,1.1-0.1l0.3-0.1l0.1-0.1h-0.1c-0.1,0-0.2,0-0.3,0c-0.3,0-0.7-0.1-1-0.1c-0.2,0-0.4-0.1-0.5-0.2
			c-0.2,0-0.3,0-0.5-0.1l-0.2-0.1l-0.1-0.1l0,0c-0.2-0.1-0.4-0.3-0.6-0.3c-1.3-0.1-2.5,0.2-3.5,1c-1.6,1-2.5,2.3-2.4,3.2l0,0v0.2
			c0,0,0,0.1,0,0.2c0,0.1,0,0.1,0,0.2c0,0.2,0,0.4,0,0.5c0,0.2,0,0.4-0.1,0.6c-0.1,0.2,0,0.2,0,0.3c0,0.1,0,0.2-0.1,0.3
			c0,0.2-0.1,0.4-0.1,0.6C93.1,35.4,93.1,35.5,93.1,35.5c-0.1,0-0.1,0.1-0.2,0.1v0.1l0.1-0.1L93.1,35.5z M97.5,31.8
			c-1.3,0.8-2.6,1.2-2.8,0.8s0.6-1.4,1.9-2.2c1.3-0.8,2.6-1.2,2.8-0.8C99.7,30,98.8,31,97.5,31.8z"/>
		
			<linearGradient id="SVGID_15_" gradientUnits="userSpaceOnUse" x1="148.5298" y1="104.8913" x2="66.8898" y2="139.7013" gradientTransform="matrix(1 0 0 -1 0 155.2763)">
			<stop  offset="1.000000e-02" style="stop-color:#891A1C"/>
			<stop  offset="0.23" style="stop-color:#B41D22"/>
			<stop  offset="0.51" style="stop-color:#C61D23"/>
			<stop  offset="1" style="stop-color:#EF4E23"/>
		</linearGradient>
		<path class="st16" d="M133.9,40.2h-0.2l-0.2,0c-0.5,0.1-1,0.1-1.4,0.1c-0.3,0-0.5,0-0.8,0c-0.2,0-0.5,0-0.7-0.1l-0.3,0h-0.2h-0.2
			l0.2,0.1l0.2,0.1l0.3,0.1l0.7,0.3c0.2,0.1,0.5,0.2,0.8,0.3s0.6,0.2,0.9,0.2c-0.1,0.4-0.1,0.9,0,1.3l-0.8,0.2
			c-0.8,0.2-1.5,0.3-1.5,0.3s0.8,0.2,1.5,0.3c0.4,0.1,0.7,0.2,1,0.2c0.3,0.7,0.6,1.3,1.1,1.9l-1.1,1.6l1.7-0.9
			c0.3,0.4,0.7,0.7,1.1,1l0,0c0,0.1,0,0.2,0,0.2c0,0.2,0,0.3,0,0.5c0,0.3,0.1,0.6,0.2,0.9c0,0.1,0.1,0.2,0.1,0.3l0.1,0.1v-0.1
			c0-0.1,0-0.2,0-0.3c0-0.3,0.1-0.5,0.3-0.7c0.1-0.1,0.1-0.2,0.2-0.3l0,0l0.3,0.2c0.5,0.3,1.1,0.4,1.6,0.4c0,0,0,0.1,0,0.1
			c0,0.2,0.1,0.5,0.1,0.7c0.1,0.4,0.2,0.9,0.4,1.3c0.1,0.2,0.1,0.3,0.2,0.4l0.1,0.1v-0.2c0-0.1,0-0.3,0-0.4c0-0.4,0-0.8,0.1-1.2
			c0-0.2,0.1-0.4,0.1-0.7s0.1-0.4,0.2-0.5l0.1-0.3c0.4-0.7,0.5-1.4,0.2-2.2c-0.3-1.1-0.9-2.1-1.7-2.9c-0.7-0.9-1.6-1.6-2.6-2.2
			C135.3,40.1,134.6,40,133.9,40.2z M138.7,47.2c-0.6,0.5-1.9-0.1-2.9-1.3s-1.3-2.6-0.7-3.1c0.6-0.5,1.9,0.1,2.9,1.3
			S139.3,46.6,138.7,47.2L138.7,47.2z"/>
		
			<linearGradient id="SVGID_16_" gradientUnits="userSpaceOnUse" x1="153.278" y1="116.0271" x2="71.6381" y2="150.8371" gradientTransform="matrix(1 0 0 -1 0 155.2763)">
			<stop  offset="1.000000e-02" style="stop-color:#891A1C"/>
			<stop  offset="0.23" style="stop-color:#B41D22"/>
			<stop  offset="0.51" style="stop-color:#C61D23"/>
			<stop  offset="1" style="stop-color:#EF4E23"/>
		</linearGradient>
		<path class="st17" d="M114.1,23.5c0.1,0.2,0.1,0.3,0.2,0.5c0.1,0.2,0.3,0.3,0.4,0.4c0.2,0.1,0.4,0.2,0.6,0.2h0.4
			c0.3,0,0.5-0.1,0.7-0.2c0.2-0.1,0.4-0.4,0.5-0.6c0.1-0.2,0.2-0.5,0.2-0.8c0-0.3-0.1-0.5-0.2-0.7c-0.1-0.1-0.2-0.2-0.3-0.3
			c-0.1-0.1-0.3-0.3-0.5-0.3c-0.1-0.1-0.3-0.1-0.4-0.1c-0.8-0.1-1.5,0.4-1.6,1.2C114,23,114,23.3,114.1,23.5z"/>
		
			<linearGradient id="SVGID_17_" gradientUnits="userSpaceOnUse" x1="151.0287" y1="110.7655" x2="69.3887" y2="145.5755" gradientTransform="matrix(1 0 0 -1 0 155.2763)">
			<stop  offset="1.000000e-02" style="stop-color:#891A1C"/>
			<stop  offset="0.23" style="stop-color:#B41D22"/>
			<stop  offset="0.51" style="stop-color:#C61D23"/>
			<stop  offset="1" style="stop-color:#EF4E23"/>
		</linearGradient>
		<path class="st18" d="M100.8,23.5L100.8,23.5L100.8,23.5c0,0.1,0.1,0.2,0.2,0.2c0,0,0.1,0,0.1,0c0.2,0,0.4-0.2,0.5-0.4
			c0.1-0.1,0.1-0.3,0-0.5c-0.1-0.1-0.2-0.2-0.4-0.2h-0.1c-0.1,0-0.2,0-0.3,0.1c-0.1,0.1-0.1,0.1-0.1,0.2
			C100.7,23.2,100.7,23.4,100.8,23.5z"/>
		
			<linearGradient id="SVGID_18_" gradientUnits="userSpaceOnUse" x1="149.1019" y1="106.2462" x2="67.4619" y2="141.0562" gradientTransform="matrix(1 0 0 -1 0 155.2763)">
			<stop  offset="1.000000e-02" style="stop-color:#891A1C"/>
			<stop  offset="0.23" style="stop-color:#B41D22"/>
			<stop  offset="0.51" style="stop-color:#C61D23"/>
			<stop  offset="1" style="stop-color:#EF4E23"/>
		</linearGradient>
		<path class="st19" d="M93.3,26.5c0.6,0.3,1.2,0.1,1.5-0.5c0.3-0.6,0.1-1.2-0.5-1.5l0,0c-0.6-0.3-1.2-0.1-1.5,0.5
			C92.5,25.5,92.8,26.2,93.3,26.5z"/>
		
			<linearGradient id="SVGID_19_" gradientUnits="userSpaceOnUse" x1="152.7813" y1="114.8747" x2="71.1413" y2="149.6848" gradientTransform="matrix(1 0 0 -1 0 155.2763)">
			<stop  offset="1.000000e-02" style="stop-color:#891A1C"/>
			<stop  offset="0.23" style="stop-color:#B41D22"/>
			<stop  offset="0.51" style="stop-color:#C61D23"/>
			<stop  offset="1" style="stop-color:#EF4E23"/>
		</linearGradient>
		<path class="st20" d="M109.7,22.2c0,0.2,0.1,0.4,0.3,0.4c0.2,0,0.3-0.1,0.4-0.2c0.1-0.1,0.1-0.2,0.1-0.3c0-0.2-0.2-0.4-0.4-0.4
			c-0.1,0-0.1,0-0.2,0l0,0c-0.1,0-0.2,0.1-0.2,0.2C109.7,22.1,109.7,22.2,109.7,22.2z"/>
		
			<linearGradient id="SVGID_20_" gradientUnits="userSpaceOnUse" x1="141.3671" y1="88.1149" x2="59.7371" y2="122.9249" gradientTransform="matrix(1 0 0 -1 0 155.2763)">
			<stop  offset="1.000000e-02" style="stop-color:#891A1C"/>
			<stop  offset="0.23" style="stop-color:#B41D22"/>
			<stop  offset="0.51" style="stop-color:#C61D23"/>
			<stop  offset="1" style="stop-color:#EF4E23"/>
		</linearGradient>
		<path class="st21" d="M85.5,44.3c0.1,0.1,0.3,0.3,0.4,0.3c0.2,0.1,0.5,0.1,0.8,0.1c0.5-0.2,0.8-0.7,0.6-1.3c0-0.1,0-0.1-0.1-0.2
			c-0.2-0.5-0.8-0.7-1.3-0.5c0,0,0,0,0,0c-0.2,0.1-0.4,0.3-0.5,0.6c-0.1,0.2-0.1,0.5,0,0.7C85.4,44.2,85.5,44.3,85.5,44.3z"/>
		
			<linearGradient id="SVGID_21_" gradientUnits="userSpaceOnUse" x1="152.3003" y1="113.7489" x2="70.6703" y2="148.5589" gradientTransform="matrix(1 0 0 -1 0 155.2763)">
			<stop  offset="1.000000e-02" style="stop-color:#891A1C"/>
			<stop  offset="0.23" style="stop-color:#B41D22"/>
			<stop  offset="0.51" style="stop-color:#C61D23"/>
			<stop  offset="1" style="stop-color:#EF4E23"/>
		</linearGradient>
		<path class="st22" d="M135.8,35L135.8,35c0.2,0,0.2-0.1,0.3-0.1c0.1,0,0.1-0.1,0.2-0.1c0.1-0.1,0.2-0.4,0.1-0.5
			c0-0.1-0.1-0.2-0.2-0.3c-0.3-0.3-0.7-0.3-1-0.2c-0.4,0.1-0.6,0.5-0.4,0.9c0,0,0,0,0,0.1C135,35.1,135.4,35.2,135.8,35
			C135.8,35,135.8,35,135.8,35z"/>
		
			<linearGradient id="SVGID_22_" gradientUnits="userSpaceOnUse" x1="142.3739" y1="90.4609" x2="60.7339" y2="125.2709" gradientTransform="matrix(1 0 0 -1 0 155.2763)">
			<stop  offset="1.000000e-02" style="stop-color:#891A1C"/>
			<stop  offset="0.23" style="stop-color:#B41D22"/>
			<stop  offset="0.51" style="stop-color:#C61D23"/>
			<stop  offset="1" style="stop-color:#EF4E23"/>
		</linearGradient>
		<path class="st23" d="M82.7,39.5c0.1-0.2,0.1-0.4,0.1-0.6c0-0.3-0.2-0.6-0.4-0.8L82.3,38c-0.2-0.1-0.4-0.2-0.6-0.3
			c-0.2,0-0.4,0-0.6,0c-0.3,0.1-0.5,0.3-0.7,0.6c-0.1,0.3-0.2,0.6-0.1,0.9c0.1,0.2,0.2,0.4,0.3,0.5c0.2,0.1,0.4,0.2,0.6,0.3l0.2,0
			h0.3c0.1,0,0.3,0,0.4-0.1C82.4,39.8,82.5,39.7,82.7,39.5z"/>
		
			<linearGradient id="SVGID_23_" gradientUnits="userSpaceOnUse" x1="149.8347" y1="107.9628" x2="68.1947" y2="142.7728" gradientTransform="matrix(1 0 0 -1 0 155.2763)">
			<stop  offset="1.000000e-02" style="stop-color:#891A1C"/>
			<stop  offset="0.23" style="stop-color:#B41D22"/>
			<stop  offset="0.51" style="stop-color:#C61D23"/>
			<stop  offset="1" style="stop-color:#EF4E23"/>
		</linearGradient>
		<path class="st24" d="M146.8,44.8c-0.5-0.4-1.2-0.2-1.6,0.3s-0.2,1.2,0.3,1.6c0.1,0.1,0.2,0.1,0.3,0.1c0.6,0.3,1.2,0,1.5-0.5
			c0.1-0.1,0.1-0.2,0.1-0.3c0-0.2,0-0.4-0.1-0.5C147.2,45.1,147,44.9,146.8,44.8z"/>
		
			<linearGradient id="SVGID_24_" gradientUnits="userSpaceOnUse" x1="146.8547" y1="100.9827" x2="65.2247" y2="135.7927" gradientTransform="matrix(1 0 0 -1 0 155.2763)">
			<stop  offset="1.000000e-02" style="stop-color:#891A1C"/>
			<stop  offset="0.23" style="stop-color:#B41D22"/>
			<stop  offset="0.51" style="stop-color:#C61D23"/>
			<stop  offset="1" style="stop-color:#EF4E23"/>
		</linearGradient>
		<path class="st25" d="M155,47.6l0.1,0.2c-2.7-9.1-8.3-17.2-15.9-23c0.3-0.8,0.6-1.3,0.5-1.7c-0.9-1.7-2.3-3.1-4-4.1h-0.1
			c-1.9-1.3-4.1-2.2-6.3-2.7l0,0c-0.2,0-0.4-0.1-0.6-0.1c-1.8-0.2-2.5,0.4-2.6,0.8c-0.1,0.3-0.3,0.5-0.4,0.8l0,0
			c-2.1-0.7-4.2-1.2-6.3-1.5c-12.6-2.2-25.6,1.1-35.7,9.1c-0.3,0.3-0.7,0.6-1.1,1h-0.1l-0.1-0.1L82,26.1c-0.1-0.1-0.3-0.2-0.4-0.3
			c-2.7-1.4-6,2.1-6.9,3.2c-2.1,2.4-3.7,5.7-1.8,7.6l0.4,0.5c-0.8,1.2-1.5,2.5-2.2,3.9c-1.6,3.3-2.8,6.7-3.7,10.3l3,0.5
			c0.7-3.3,1.9-6.5,3.4-9.5c0.6-1.3,1.3-2.6,2.1-3.8v0c0,0.2,0.1,0.4,0.1,0.6c0,0.2,0,0.4,0.1,0.5c0,0.2,0,0.3,0,0.5
			c0,0.3,0,0.6,0,0.8v0.3l0.1-0.3c0-0.2,0.1-0.4,0.1-0.7c0.1-0.3,0-0.3,0.1-0.5c0.1-0.2,0-0.4,0.1-0.6c0.1-0.2,0-0.4,0-0.6
			s0-0.2,0-0.3s0-0.2,0-0.3s0-0.2-0.1-0.3c-0.1-0.1,0-0.2-0.1-0.3V37l-0.1-0.2c0-0.1-0.1-0.2-0.1-0.3s-0.2-0.4-0.2-0.5l-0.2-0.4
			c0.3-0.1,0.6-0.2,0.8-0.4l0.2,0.2c0.1,0.1,0.2,0.2,0.3,0.3c0.1,0.1,0.2,0.2,0.2,0.3c0,0.1,0.1,0.1,0.1,0.2v0.1v-0.1
			c0-0.1,0-0.2,0-0.3c0-0.1,0-0.2,0-0.4s0-0.3-0.1-0.4c-0.1-0.1-0.1-0.2-0.1-0.4c0.7-0.6,1.4-1.2,2-1.9l0.1,0.1l0.3,0.2l0.4,0.2
			c0.3,0.1,0.5,0.3,0.8,0.4c0.6,0.3,1.2,0.5,1.6,0.6l0.7,0.2c0,0-0.3-0.2-0.6-0.4c-0.4-0.3-0.9-0.6-1.3-1c-0.2-0.2-0.5-0.4-0.7-0.6
			l-0.3-0.3l-0.2-0.2l0-0.1c0.4-0.5,0.7-1,1-1.5l2.3,0.4l-1.9-1.4c0.1-0.3,0.2-0.5,0.2-0.8h0.2l0.3,0.1c0.2,0,0.4,0.1,0.6,0.1
			c0.2,0,0.4,0.1,0.6,0.1s0.4,0,0.7,0h0.3h0.3l0.6-0.1l0.6-0.1c0.2,0,0.3-0.1,0.5-0.1l0.2-0.1l0.2-0.1l0.3-0.1l0.3-0.1l-0.3,0.1
			l-0.3,0.1h-0.2h-0.2l-0.5,0h-0.6h-0.5c10.8-9,25.3-12.1,38.8-8.2l0,0l-0.3,0.2l-0.4,0.2c-0.2,0.1-0.5,0.2-0.7,0.2l-0.3,0.1
			l-0.3,0.1l-0.3,0.1l-0.3,0.1l-0.6,0.1l-0.4,0.1l-0.4,0.1h0.8h0.6h0.4h0.3h0.4h0.4c0.3,0,0.5-0.1,0.8-0.1l0.4-0.1
			c0.1,0,0.3-0.1,0.4-0.1c0.1,0,0.3-0.1,0.4-0.1l0.4-0.2c0.3-0.1,0.5-0.3,0.7-0.4l0.3-0.2l0.3-0.2l0.5-0.4l0.1-0.1
			c0.3,0.5,0.6,0.9,0.9,1.2c-0.1,0.1-0.2,0.3-0.3,0.4c-0.1,0.1-0.2,0.3-0.3,0.4l-0.2,0.2l-0.2,0.1c-0.1,0.1-0.2,0.1-0.2,0.2
			l-0.1,0.1h0.1h0.3l0.2-0.1l0.2-0.2l0.5-0.2l0.6-0.3c1,0.9,2.2,1.6,3.4,2.2l0,0c0,0.1-0.1,0.2-0.1,0.3c0,0.1-0.1,0.3-0.2,0.5
			s-0.1,0.3-0.1,0.5c0,0.2-0.1,0.4-0.1,0.6c0,0.2-0.1,0.4-0.1,0.6c-0.2,0.8-0.3,1.5-0.3,2.1s-0.1,1-0.1,1s0.1-0.4,0.3-0.9
			c0.2-0.5,0.4-1.3,0.8-2c0.1-0.2,0.2-0.4,0.2-0.5s0.2-0.3,0.2-0.5l0.2-0.4l0.2-0.4l0.1-0.2c0.9,0.4,1.7,0.7,2.7,1l0.1,3.1l0.9-2.9
			c0.5,0.1,1,0.1,1.5,0.1c0,0.1,0,0.1,0,0.2c0,0.1,0,0.2,0,0.3v0.4c0,0.1,0,0.2,0,0.4v0.4c0,0.3,0.1,0.5,0.1,0.8s0.1,0.6,0.2,0.8
			c0.1,0.3,0.2,0.5,0.3,0.8c0.1,0.3,0.2,0.5,0.3,0.8c0.1,0.2,0.2,0.5,0.4,0.7L139,31l0.2,0.3c0.1,0.2,0.2,0.3,0.3,0.5l0.3,0.4
			l0.2,0.3c0,0-0.1-0.1-0.2-0.3l-0.2-0.4c-0.1-0.1-0.2-0.3-0.2-0.5c-0.1-0.2-0.1-0.2-0.1-0.3l-0.1-0.3c-0.1-0.2-0.2-0.5-0.2-0.7
			s-0.1-0.5-0.2-0.8s-0.1-0.5-0.1-0.8l0,0c3,2.5,5.7,5.3,7.9,8.6l3.3,6.4l0,0c0.4,0.8,0.8,1.6,1.1,2.4c0.2,0.4,0.3,0.8,0.5,1.2
			c0.2,0.4,0.3,0.8,0.5,1.2c0.1,0.4,0.3,0.8,0.4,1.2c0.1,0.4,0.2,0.8,0.4,1.3c0.1,0.4,0.2,0.8,0.3,1.2l3-0.5
			C155.7,50,155.4,48.9,155,47.6z M80,29.5c-0.2,0.5-0.4,0.9-0.7,1.4c-0.1,0.2-0.3,0.5-0.5,0.7c-0.2,0.2-0.4,0.5-0.6,0.7
			c-0.2,0.2-0.4,0.4-0.6,0.6c-0.2,0.2-0.4,0.4-0.6,0.6c-0.4,0.3-0.8,0.6-1.2,0.9c-0.3,0.2-0.6,0.3-1,0.3c-0.1,0-0.2,0-0.3,0h-0.1
			h0.1c0.1,0,0.2,0,0.3-0.1c0.3-0.1,0.6-0.3,0.8-0.5c0.3-0.3,0.7-0.6,1-1l0.5-0.6l0.6-0.6l0.5-0.6c0.2-0.2,0.3-0.4,0.5-0.6
			c0.3-0.4,0.6-0.7,0.8-1.1c0.2-0.3,0.3-0.6,0.4-0.9c0-0.1,0-0.2,0-0.3c0,0,0-0.1,0-0.1l0,0c0,0,0,0,0,0.1c0,0.1,0.1,0.2,0.1,0.3
			C80.2,28.8,80.1,29.2,80,29.5L80,29.5z M137.8,23.3C137.7,23.4,137.7,23.4,137.8,23.3c-0.2,0.1-0.3,0.2-0.4,0.2
			c-0.4,0.1-0.9,0.1-1.4,0c-0.6-0.1-1.2-0.3-1.8-0.5c-0.3-0.1-0.7-0.2-1-0.4c-0.3-0.1-0.7-0.3-1-0.4c-0.7-0.3-1.3-0.6-1.9-1
			c-0.5-0.3-1-0.7-1.5-1.1c-0.3-0.3-0.6-0.7-0.8-1c-0.1-0.1-0.1-0.2-0.1-0.4c0-0.1,0-0.1,0-0.1l0,0c0,0,0,0.1,0,0.1
			c0.1,0.1,0.1,0.2,0.2,0.3c0.3,0.3,0.6,0.5,1,0.8c1.1,0.7,2.3,1.3,3.5,1.8l1,0.5l0.9,0.4c0.6,0.3,1.2,0.5,1.7,0.7
			c0.4,0.2,0.8,0.2,1.2,0.3C137.5,23.4,137.6,23.4,137.8,23.3L137.8,23.3L137.8,23.3L137.8,23.3z"/>
		
			<linearGradient id="SVGID_25_" gradientUnits="userSpaceOnUse" x1="130.3571" y1="79.6948" x2="117.6371" y2="85.1248" gradientTransform="matrix(1 0 0 -1 0 155.2763)">
			<stop  offset="0" style="stop-color:#00BEE7"/>
			<stop  offset="0.17" style="stop-color:#20AFDC"/>
			<stop  offset="0.33" style="stop-color:#0087B4"/>
			<stop  offset="0.5" style="stop-color:#0073A1"/>
			<stop  offset="0.67" style="stop-color:#00527D"/>
			<stop  offset="0.83" style="stop-color:#144069"/>
			<stop  offset="1" style="stop-color:#192951"/>
		</linearGradient>
		<path class="st26" d="M117.8,70.8c1,0.7,2,1.5,2.7,2.4c4.2,5.1,4.6,13.2,4.6,13.2c1.1-2.8,2-5.7,2.6-8.7l0,0
			c0.3-1.3,0.5-2.7,0.6-4c1.3-13.3-7.2-15-7.2-15L117.8,70.8z"/>
		<path class="st9" d="M121.4,58.7L121.4,58.7l0.3,0.1c0.3,0.1,0.6,0.3,0.9,0.4c0.4,0.2,0.9,0.5,1.3,0.8c0.5,0.4,1,0.9,1.4,1.3
			c0.5,0.6,1,1.2,1.3,1.9c0.4,0.8,0.7,1.6,1,2.4c0.3,0.9,0.4,1.8,0.6,2.7c0,0.2,0,0.5,0.1,0.7c0.1,0.2,0,0.5,0,0.7v0.7
			c0,0.2,0,0.5,0,0.7c0,1-0.1,1.9-0.2,2.9c0,0.2-0.1,0.5-0.1,0.7v0.3l-0.1,0.3c-0.1,0.5-0.1,0.9-0.2,1.4s-0.2,0.9-0.3,1.3
			s-0.2,0.8-0.3,1.2c-0.2,0.8-0.4,1.6-0.6,2.3l-0.1,0.5l-0.2,0.5l-0.3,0.9c-0.2,0.6-0.3,1.1-0.5,1.5l-0.4,1.3l0.5-1.2
			c0.2-0.4,0.3-0.9,0.5-1.4s0.4-1.2,0.7-1.9s0.5-1.4,0.7-2.3c0.1-0.4,0.2-0.8,0.3-1.2s0.2-0.9,0.3-1.3c0.2-0.9,0.3-1.8,0.4-2.8
			c0.1-1,0.2-1.9,0.2-2.9c0-0.2,0-0.5,0-0.7s0-0.5,0-0.7s0-0.5-0.1-0.7s0-0.5-0.1-0.7l-0.1-0.7c0-0.2-0.1-0.5-0.1-0.7
			c-0.1-0.5-0.2-0.9-0.4-1.4c-0.3-0.8-0.6-1.6-1-2.4c-0.4-0.7-0.9-1.3-1.4-1.9c-0.5-0.5-1-0.9-1.6-1.3c-0.4-0.3-0.9-0.6-1.3-0.8
			c-0.3-0.1-0.6-0.3-0.9-0.3L121.4,58.7L121.4,58.7z"/>
		<path class="st8" d="M121.5,59.7l0.2,0.1l0.4,0.3c0.2,0.2,0.4,0.3,0.6,0.5s0.4,0.5,0.7,0.7s0.5,0.6,0.8,0.9l0.2,0.2
			c0.1,0.1,0.1,0.2,0.2,0.3c0.1,0.2,0.2,0.4,0.4,0.6s0.2,0.4,0.4,0.6l0.2,0.3l0.1,0.2l0.1,0.2l0.3,0.7c0.1,0.1,0.1,0.2,0.2,0.3
			l0.1,0.3l0.3,0.7c0,0.1,0.1,0.2,0.1,0.4l0.1,0.4c0.1,0.5,0.3,0.9,0.4,1.4c0,0.2,0.1,0.5,0.1,0.7c0.1,0.2,0.1,0.5,0.1,0.7
			c0.1,0.4,0.1,0.8,0.2,1.2c0,0.2,0.1,0.4,0.1,0.6v0.5c0,0.3,0,0.6,0,0.8v0.7h0.1l0.1-0.7c0-0.2,0-0.5,0.1-0.8v-0.5
			c0-0.2,0-0.4,0-0.5c0-0.4,0-0.8,0-1.3c0-0.2,0-0.5,0-0.7c0-0.2,0-0.5-0.1-0.7c-0.1-0.5-0.1-1-0.2-1.5l-0.1-0.4
			c0-0.1-0.1-0.2-0.1-0.4l-0.2-0.8c-0.2-0.5-0.3-1-0.6-1.5l-0.1-0.2l-0.1-0.2l-0.2-0.3l-0.2-0.3c-0.1-0.1-0.1-0.2-0.2-0.3
			c-0.3-0.4-0.6-0.8-0.9-1.1c-0.2-0.2-0.3-0.3-0.5-0.5l-0.5-0.4c-0.2-0.1-0.3-0.2-0.5-0.3c-0.1-0.1-0.3-0.2-0.4-0.3
			c-0.2-0.1-0.3-0.2-0.4-0.2l-0.4-0.2c-0.2-0.1-0.4-0.1-0.5-0.1L121.5,59.7L121.5,59.7z"/>
		
			<linearGradient id="SVGID_26_" gradientUnits="userSpaceOnUse" x1="94.9533" y1="82.7281" x2="105.6185" y2="82.7281" gradientTransform="matrix(1 0 0 -1 0 155.2763)">
			<stop  offset="0" style="stop-color:#00BEE7"/>
			<stop  offset="0.17" style="stop-color:#20AFDC"/>
			<stop  offset="0.33" style="stop-color:#0087B4"/>
			<stop  offset="0.5" style="stop-color:#0073A1"/>
			<stop  offset="0.67" style="stop-color:#00527D"/>
			<stop  offset="0.83" style="stop-color:#144069"/>
			<stop  offset="1" style="stop-color:#192951"/>
		</linearGradient>
		<path class="st27" d="M105.6,70.8c-1,0.7-2,1.5-2.7,2.4c-4.2,5.1-4.5,13.2-4.5,13.2c-1.1-2.8-2-5.7-2.6-8.7l0,0
			c-0.3-1.3-0.5-2.7-0.6-4c-1.3-13.3,7.2-15,7.2-15L105.6,70.8z"/>
		<path class="st9" d="M102.1,58.7L102.1,58.7l-0.3,0.1c-0.3,0.1-0.6,0.2-0.9,0.3c-0.5,0.2-0.9,0.5-1.3,0.8
			c-0.6,0.4-1.1,0.8-1.6,1.3c-0.5,0.6-1,1.2-1.4,1.9c-0.4,0.8-0.8,1.6-1,2.5c-0.1,0.5-0.3,0.9-0.4,1.4c0,0.2-0.1,0.5-0.1,0.7
			l-0.1,0.7c0,0.2,0,0.5-0.1,0.7c-0.1,0.2-0.1,0.5-0.1,0.7v0.7c0,0.2,0,0.5,0,0.7c0,1,0.1,1.9,0.2,2.9c0.1,1,0.3,1.9,0.4,2.8
			l0.3,1.3c0.1,0.4,0.2,0.8,0.3,1.2c0.2,0.8,0.4,1.6,0.7,2.3s0.4,1.3,0.7,1.9s0.4,1,0.5,1.4l0.5,1.2l-0.4-1.3
			c-0.1-0.4-0.3-0.9-0.5-1.5c-0.1-0.3-0.2-0.6-0.3-0.9l-0.2-0.5l-0.1-0.5c-0.2-0.7-0.4-1.5-0.6-2.3c-0.1-0.4-0.2-0.8-0.3-1.2
			s-0.2-0.9-0.3-1.3c-0.1-0.4-0.2-0.9-0.2-1.4l-0.1-0.3v-0.3c0-0.2-0.1-0.5-0.1-0.7c-0.1-1-0.2-1.9-0.2-2.9c0-0.2,0-0.5,0-0.7v-0.7
			c0-0.2,0-0.5,0-0.7s0-0.5,0.1-0.7c0.1-0.9,0.3-1.8,0.5-2.7c0.3-0.8,0.6-1.6,1-2.4c0.4-0.7,0.8-1.3,1.3-1.9
			c0.4-0.5,0.9-0.9,1.4-1.3c0.4-0.3,0.8-0.6,1.3-0.8c0.3-0.2,0.6-0.3,0.9-0.4L102.1,58.7L102.1,58.7z"/>
		<path class="st8" d="M101.9,59.6h-0.2c-0.2,0-0.4,0.1-0.5,0.1l-0.4,0.2c-0.1,0-0.3,0.1-0.4,0.2c-0.2,0.1-0.3,0.2-0.5,0.3l-0.5,0.3
			L99,61.1c-0.2,0.1-0.3,0.3-0.5,0.5c-0.3,0.4-0.6,0.7-0.9,1.1c-0.1,0.1-0.1,0.2-0.2,0.3l-0.2,0.3L97,63.7L97,63.9l-0.1,0.2
			c-0.2,0.5-0.4,1-0.5,1.5l-0.2,0.8c0,0.1-0.1,0.3-0.1,0.4l-0.1,0.4c-0.1,0.5-0.2,1-0.2,1.5l-0.1,0.7c0,0.2-0.1,0.5-0.1,0.7
			c0,0.4,0,0.9,0,1.3c0,0.2,0,0.4,0,0.6v0.5c0,0.3,0,0.6,0.1,0.8v0.7h0.1v-0.7c0-0.2,0-0.5,0-0.8c0-0.2,0-0.3,0-0.5s0-0.4,0.1-0.5
			c0-0.4,0.1-0.8,0.2-1.2c0-0.2,0.1-0.4,0.1-0.7l0.1-0.7c0.1-0.5,0.2-0.9,0.4-1.4l0.1-0.4c0-0.1,0.1-0.2,0.1-0.4l0.3-0.7l0.1-0.3
			c0-0.1,0.1-0.2,0.2-0.3l0.3-0.7l0.3-0.1c0,0,0.1-0.1,0.1-0.2l0.2-0.3c0.1-0.2,0.2-0.4,0.4-0.6s0.3-0.4,0.4-0.6
			c0.1-0.1,0.1-0.2,0.2-0.3l0.2-0.2c0.2-0.3,0.5-0.6,0.8-0.9s0.5-0.5,0.7-0.7s0.4-0.4,0.6-0.5l0.4-0.3l0.2-0.1L101.9,59.6z"/>
		
			<linearGradient id="SVGID_27_" gradientUnits="userSpaceOnUse" x1="100.4785" y1="104.8722" x2="122.9685" y2="104.8722" gradientTransform="matrix(1 0 0 -1 0 155.2763)">
			<stop  offset="0" style="stop-color:#00BEE7"/>
			<stop  offset="0.17" style="stop-color:#20AFDC"/>
			<stop  offset="0.33" style="stop-color:#0087B4"/>
			<stop  offset="0.5" style="stop-color:#0073A1"/>
			<stop  offset="0.67" style="stop-color:#00527D"/>
			<stop  offset="0.83" style="stop-color:#144069"/>
			<stop  offset="1" style="stop-color:#192951"/>
		</linearGradient>
		<path class="st28" d="M100.5,45.2c0,9.8,4.1,22,5.8,27.7h11c1.6-5.6,5.7-17.9,5.7-27.7c-0.1-3-0.9-6-2.5-8.5
			c-2.1-3.3-4.9-6.2-8.2-8.5c-0.3-0.2-0.7-0.2-1,0c-3.3,2.3-6,5.2-8.2,8.5C101.4,39.2,100.5,42.1,100.5,45.2z"/>
		
			<linearGradient id="SVGID_28_" gradientUnits="userSpaceOnUse" x1="105.9735" y1="108.4985" x2="119.0935" y2="105.1585" gradientTransform="matrix(1 0 0 -1 0 155.2763)">
			<stop  offset="0" style="stop-color:#00BEE7"/>
			<stop  offset="0.17" style="stop-color:#20AFDC"/>
			<stop  offset="0.33" style="stop-color:#0087B4"/>
			<stop  offset="0.5" style="stop-color:#0073A1"/>
			<stop  offset="0.67" style="stop-color:#00527D"/>
			<stop  offset="0.83" style="stop-color:#144069"/>
			<stop  offset="1" style="stop-color:#192951"/>
		</linearGradient>
		<path class="st29" d="M107.5,53.6c3,2.3,7.3,1.8,9.6-1.2c2.3-3,1.8-7.3-1.2-9.6c-3-2.3-7.3-1.8-9.6,1.2
			C104,47,104.6,51.3,107.5,53.6z"/>
		<g class="st30">
			<circle class="st8" cx="111.8" cy="48.3" r="5.7"/>
		</g>
		<path class="st9" d="M107.3,44.8c-1.9,2.5-1.5,6,1,7.9c2.5,1.9,6,1.5,7.9-1c1.9-2.5,1.5-6-1-7.9c0,0,0,0,0,0
			C112.7,41.9,109.2,42.3,107.3,44.8z"/>
		<path class="st8" d="M107.3,51.3c0.2,0.3,0.4,0.5,0.7,0.8c0.1,0.1,0.3,0.3,0.4,0.4c2.3,1.8,5.7,1.4,7.5-0.9
			c1.4-1.8,1.5-4.2,0.4-6.1c-0.3-0.6-0.8-1.1-1.3-1.5c-2.4-1.8-5.7-1.4-7.5,1C106.1,46.8,106,49.4,107.3,51.3L107.3,51.3z"/>
		<path class="st8" d="M107.4,53.4c3,2.3,7.2,1.8,9.6-1.2c2.1-2.7,1.9-6.5-0.5-9c2.7,2.6,2.9,6.9,0.3,9.7c-2.4,2.6-6.4,2.9-9.2,0.7
			c-0.3-0.2-0.5-0.4-0.7-0.7C107,53.1,107.2,53.3,107.4,53.4z"/>
		<path class="st9" d="M106.2,72.8c0,0.6,2.5,1.1,5.5,1.1s5.5-0.5,5.5-1.1s-2.5-1.1-5.5-1.1S106.2,72.2,106.2,72.8z"/>
		
			<linearGradient id="SVGID_29_" gradientUnits="userSpaceOnUse" x1="106.9185" y1="82.1582" x2="116.5385" y2="82.1582" gradientTransform="matrix(1 0 0 -1 0 155.2763)">
			<stop  offset="0" style="stop-color:#00BEE7"/>
			<stop  offset="0.17" style="stop-color:#20AFDC"/>
			<stop  offset="0.33" style="stop-color:#0087B4"/>
			<stop  offset="0.5" style="stop-color:#0073A1"/>
			<stop  offset="0.67" style="stop-color:#00527D"/>
			<stop  offset="0.83" style="stop-color:#144069"/>
			<stop  offset="1" style="stop-color:#192951"/>
		</linearGradient>
		<ellipse class="st31" cx="111.7" cy="73.1" rx="4.8" ry="1"/>
		
			<linearGradient id="SVGID_30_" gradientUnits="userSpaceOnUse" x1="106.9185" y1="80.8182" x2="116.5385" y2="80.8182" gradientTransform="matrix(1 0 0 -1 0 155.2763)">
			<stop  offset="0" style="stop-color:#00BEE7"/>
			<stop  offset="0.17" style="stop-color:#20AFDC"/>
			<stop  offset="0.33" style="stop-color:#0087B4"/>
			<stop  offset="0.5" style="stop-color:#0073A1"/>
			<stop  offset="0.67" style="stop-color:#00527D"/>
			<stop  offset="0.83" style="stop-color:#144069"/>
			<stop  offset="1" style="stop-color:#192951"/>
		</linearGradient>
		<rect x="106.9" y="73.1" class="st32" width="9.6" height="2.8"/>
		
			<linearGradient id="SVGID_31_" gradientUnits="userSpaceOnUse" x1="106.9185" y1="79.4182" x2="116.5385" y2="79.4182" gradientTransform="matrix(1 0 0 -1 0 155.2763)">
			<stop  offset="0" style="stop-color:#00BEE7"/>
			<stop  offset="0.17" style="stop-color:#20AFDC"/>
			<stop  offset="0.33" style="stop-color:#0087B4"/>
			<stop  offset="0.5" style="stop-color:#0073A1"/>
			<stop  offset="0.67" style="stop-color:#00527D"/>
			<stop  offset="0.83" style="stop-color:#144069"/>
			<stop  offset="1" style="stop-color:#192951"/>
		</linearGradient>
		<path class="st33" d="M106.9,75.9c0,0.5,2.2,1,4.8,1s4.8-0.4,4.8-1s-2.2-1-4.8-1S106.9,75.3,106.9,75.9z"/>
		<path class="st9" d="M107.8,76.2c0,0.4,1.8,0.8,4,0.8s4-0.3,4-0.8s-1.8-0.8-4-0.8S107.8,75.7,107.8,76.2z"/>
		<rect x="107.8" y="76.2" class="st9" width="7.9" height="1.1"/>
		<ellipse class="st9" cx="111.7" cy="77.3" rx="4" ry="0.8"/>
		<path class="st8" d="M108.3,77.3C108.3,77.3,108.3,77.4,108.3,77.3c0.1,0.2,0.2,0.3,0.4,0.3c2,0.5,4,0.5,6,0
			c0.1,0,0.3-0.1,0.4-0.2c0,0,0-0.1,0-0.1c0-0.2-0.4-0.4-1-0.5c-0.6-0.1-1.2-0.2-1.8-0.2h-1.1c-0.6,0-1.2,0.1-1.8,0.2
			C108.7,76.9,108.3,77.1,108.3,77.3z"/>
		
			<linearGradient id="SVGID_32_" gradientUnits="userSpaceOnUse" x1="103.2185" y1="123.1522" x2="120.2385" y2="123.1522" gradientTransform="matrix(1 0 0 -1 0 155.2763)">
			<stop  offset="0" style="stop-color:#00BEE7"/>
			<stop  offset="0.17" style="stop-color:#20AFDC"/>
			<stop  offset="0.33" style="stop-color:#0087B4"/>
			<stop  offset="0.5" style="stop-color:#0073A1"/>
			<stop  offset="0.67" style="stop-color:#00527D"/>
			<stop  offset="0.83" style="stop-color:#144069"/>
			<stop  offset="1" style="stop-color:#192951"/>
		</linearGradient>
		<path class="st34" d="M111.7,35c-2.9,0-5.8,0.4-8.5,1.3c2.1-3.2,4.8-6,8-8.2c0.3-0.2,0.7-0.2,1,0c3.2,2.2,5.9,5,8,8.2
			C117.5,35.4,114.6,35,111.7,35z"/>
		<path class="st9" d="M117.2,72.8l1.3-4.1c0.4-1.3,0.9-2.9,1.4-4.7s1.1-3.9,1.6-6.2c0.6-2.5,1-4.9,1.3-7.4l0.1-1l0.1-0.5v-0.5
			c0.1-0.7,0.1-1.4,0.1-2.1c0-0.4,0-0.7,0-1.1c0-0.3,0-0.7,0-1.1c0-0.7-0.1-1.5-0.2-2.2c-0.3-1.5-0.8-2.9-1.5-4.2
			c-0.2-0.3-0.4-0.7-0.6-1l-0.2-0.2l-0.2-0.2l-0.3-0.5c-0.2-0.3-0.4-0.6-0.7-1s-0.5-0.6-0.7-0.9c-1-1.2-2-2.4-3.2-3.4
			c-0.6-0.5-1.2-1-1.8-1.5c-0.3-0.2-0.6-0.5-0.9-0.7l-0.5-0.4l0,0l0,0l0,0l0,0l-0.4-0.2c-0.3-0.1-0.5-0.1-0.8,0l-0.2,0.1l-0.2,0.1
			l-0.5,0.4c-0.3,0.2-0.6,0.5-0.9,0.7c-0.6,0.5-1.2,1-1.8,1.5c-1.2,1-2.2,2.2-3.2,3.4c-1,1.2-1.8,2.5-2.5,3.9
			c-0.7,1.3-1.2,2.8-1.5,4.2c-0.2,0.7-0.3,1.5-0.3,2.2c0,0.4,0,0.7,0,1.1v1.1c0,0.7,0.1,1.4,0.1,2.1c0,0.2,0,0.3,0,0.5l0.1,0.5
			c0,0.3,0.1,0.7,0.1,1c0.3,2.7,0.8,5.2,1.3,7.4s1.1,4.3,1.6,6.2c0.5,1.8,1,3.4,1.4,4.7l1.3,4.1l-1.2-4.1c-0.4-1.3-0.8-2.9-1.3-4.7
			c-0.5-1.8-1-3.9-1.5-6.2s-0.9-4.8-1.2-7.4c0-0.3-0.1-0.7-0.1-1c0-0.2,0-0.3,0-0.5v-0.5c0-0.7-0.1-1.4-0.1-2.1c0-0.3,0-0.7,0-1.1
			c0-0.4,0-0.7,0-1c0-0.7,0.2-1.4,0.3-2.1c0.7-2.9,2.1-5.6,4-7.8c1-1.2,2-2.3,3.1-3.3c0.6-0.5,1.2-1,1.8-1.5l0.9-0.7l0.5-0.3
			l0.1-0.1h0.1c0.1,0,0.1,0,0.2,0h0.2h0.1l0,0l0,0l0,0l0,0l0.5,0.3l0.9,0.7c0.6,0.5,1.2,1,1.8,1.5c1.1,1,2.2,2.1,3.2,3.3
			c0.2,0.3,0.5,0.6,0.7,0.9s0.4,0.6,0.6,0.9l0.3,0.5l0.2,0.2l0.2,0.2c0.2,0.3,0.4,0.6,0.5,1c0.7,1.3,1.2,2.7,1.5,4.1
			c0.2,0.7,0.3,1.4,0.3,2.1c0,0.3,0,0.7,0,1v1c0,0.7-0.1,1.4-0.1,2.1v0.5c0,0.2,0,0.3,0,0.5c0,0.3-0.1,0.7-0.1,1
			c-0.3,2.7-0.7,5.1-1.2,7.4s-1,4.4-1.5,6.2s-0.9,3.4-1.3,4.7L117.2,72.8z"/>
		<path class="st8" d="M117.2,72.8c0,0,0-0.1,0-0.1c-0.1-0.1-0.2-0.2-0.3-0.2c-0.4-0.2-0.8-0.4-1.2-0.4c-0.6-0.1-1.2-0.2-1.8-0.3
			c-0.7-0.1-1.4-0.1-2.1-0.1s-1.4,0-2.1,0.1c-0.6,0.1-1.2,0.1-1.8,0.3c-0.4,0.1-0.9,0.2-1.2,0.4c-0.1,0.1-0.2,0.1-0.3,0.2
			c0,0.1,0,0.1,0,0.1s0,0,0-0.1c0.1-0.1,0.2-0.2,0.3-0.2c0.4-0.2,0.8-0.3,1.2-0.4c0.6-0.1,1.2-0.2,1.8-0.2c0.7,0,1.4-0.1,2.1-0.1
			s1.4,0,2.1,0.1c0.6,0,1.2,0.1,1.8,0.2c0.4,0.1,0.8,0.2,1.2,0.4c0.1,0,0.2,0.1,0.3,0.2C117.2,72.7,117.2,72.8,117.2,72.8z"/>
		<path class="st9" d="M116.5,73.1c0,0,0,0,0-0.1c-0.1-0.1-0.1-0.2-0.2-0.2c-0.3-0.2-0.7-0.3-1.1-0.4c-0.5-0.1-1.1-0.2-1.6-0.2
			c-0.6,0-1.2-0.1-1.9-0.1s-1.3,0-1.9,0.1c-0.5,0.1-1.1,0.1-1.6,0.2c-0.4,0.1-0.7,0.2-1.1,0.4c-0.1,0-0.2,0.1-0.2,0.2
			c0,0,0,0.1,0,0.1c0,0,0-0.1,0-0.1c0.1-0.1,0.1-0.2,0.2-0.2c0.3-0.2,0.7-0.3,1.1-0.3c0.5-0.1,1.1-0.2,1.6-0.2
			c0.6-0.1,1.2-0.1,1.8-0.1s1.3,0,1.8,0.1c0.5,0,1.1,0.1,1.6,0.2c0.4,0.1,0.7,0.2,1.1,0.3c0.1,0,0.2,0.1,0.2,0.2
			C116.5,73.1,116.5,73.1,116.5,73.1z"/>
		<path class="st8" d="M116.5,75.9c0,0,0,0,0-0.1c-0.1-0.1-0.1-0.2-0.2-0.2c-0.3-0.2-0.7-0.3-1.1-0.4c-0.5-0.1-1.1-0.2-1.6-0.2
			c-0.6-0.1-1.2-0.1-1.9-0.1c-0.6,0-1.3,0-1.9,0.1c-0.5,0-1.1,0.1-1.6,0.2c-0.4,0.1-0.7,0.2-1.1,0.4c-0.1,0-0.2,0.1-0.2,0.2
			c0,0,0,0.1,0,0.1c0,0,0-0.1,0-0.1c0.1-0.1,0.1-0.2,0.2-0.2c0.3-0.2,0.7-0.3,1.1-0.3c0.5-0.1,1.1-0.2,1.6-0.2
			c0.6,0,1.2-0.1,1.8-0.1c0.6,0,1.2,0,1.8,0.1c0.5,0,1.1,0.1,1.6,0.2c0.4,0.1,0.7,0.2,1.1,0.3c0.1,0,0.2,0.1,0.2,0.2
			C116.5,75.8,116.5,75.9,116.5,75.9z"/>
		<path class="st9" d="M115.7,76.2C115.7,76.1,115.7,76.1,115.7,76.2c-0.1-0.2-0.1-0.2-0.2-0.3c-0.3-0.1-0.6-0.2-0.9-0.3
			c-0.4-0.1-0.9-0.2-1.3-0.2c-1-0.1-2-0.1-3.1,0c-0.4,0-0.9,0.1-1.3,0.2c-0.3,0.1-0.6,0.2-0.9,0.3c-0.1,0-0.1,0.1-0.2,0.2
			c0,0,0,0.1,0,0.1c0,0,0-0.1,0-0.1c0.1-0.1,0.1-0.1,0.2-0.2c0.3-0.1,0.6-0.2,0.9-0.3c0.4-0.1,0.8-0.1,1.3-0.2s1,0,1.5,0s1,0,1.5,0
			s0.9,0.1,1.3,0.2c0.3,0,0.6,0.1,0.9,0.3C115.6,76,115.6,76,115.7,76.2C115.7,76.1,115.7,76.1,115.7,76.2z"/>
		<path class="st9" d="M107.8,77.3C107.7,77.3,107.7,77.4,107.8,77.3c0,0.2,0.1,0.2,0.2,0.3c0.3,0.2,0.6,0.3,0.9,0.3
			c0.4,0.1,0.9,0.2,1.3,0.2c1,0.1,2.1,0.1,3.1,0c0.4,0,0.9-0.1,1.3-0.2c0.3-0.1,0.6-0.2,0.9-0.3c0.1,0,0.1-0.1,0.2-0.2
			c0,0,0-0.1,0-0.1c0,0,0,0.1,0,0.1c-0.1,0.1-0.1,0.1-0.2,0.2c-0.3,0.1-0.6,0.2-0.9,0.2c-0.4,0.1-0.9,0.1-1.3,0.1
			c-0.5,0-1,0.1-1.5,0.1s-1,0-1.5-0.1c-0.4,0-0.8-0.1-1.3-0.1c-0.3,0-0.6-0.1-0.9-0.2C108,77.5,107.9,77.5,107.8,77.3
			C107.8,77.4,107.8,77.3,107.8,77.3z"/>
		<path class="st8" d="M115.7,77.3C115.7,77.3,115.7,77.2,115.7,77.3c0-0.2-0.1-0.2-0.2-0.3c-0.3-0.1-0.6-0.2-0.9-0.3
			c-0.4-0.1-0.8-0.2-1.3-0.2c-0.5,0-1-0.1-1.5-0.1s-1.1,0-1.5,0.1c-0.4,0-0.9,0.1-1.3,0.2c-0.3,0.1-0.6,0.2-0.9,0.3
			c-0.1,0-0.2,0.1-0.2,0.2c0,0,0,0.1,0,0.1c0,0,0-0.1,0-0.1c0.1-0.1,0.1-0.1,0.2-0.2c0.3-0.1,0.6-0.2,0.9-0.3
			c0.4-0.1,0.8-0.1,1.3-0.2s1-0.1,1.5,0c0.5,0,1,0,1.5,0c0.5,0,0.9,0.1,1.3,0.2c0.3,0,0.6,0.1,0.9,0.3
			C115.6,77.1,115.6,77.1,115.7,77.3C115.7,77.2,115.7,77.3,115.7,77.3z"/>
		<path class="st9" d="M115.1,77.4c0.1-0.1,0.1-0.2,0-0.2c-0.1-0.1-0.1-0.1-0.2-0.1c-0.2-0.1-0.3-0.1-0.5-0.2
			c-0.3-0.1-0.7-0.1-1-0.2c-0.3,0-0.7-0.1-1.1-0.1h-0.5h-0.5l0,0h-0.4h-0.4l-0.8,0.1c-0.3,0-0.5,0.1-0.8,0.2c-0.1,0-0.3,0.1-0.4,0.2
			c-0.1,0-0.1,0.1-0.2,0.1c0,0.1,0,0.1,0,0.2c0-0.1,0-0.1,0-0.2c0-0.1,0.1-0.1,0.2-0.1c0.1-0.1,0.2-0.1,0.4-0.2
			c0.3-0.1,0.5-0.1,0.8-0.2c0.3,0,0.5-0.1,0.8-0.1h0.4h0.4l0,0h1.1c0.4,0,0.7,0,1.1,0.1c0.3,0,0.7,0.1,1,0.2c0.2,0,0.3,0.1,0.5,0.2
			c0.1,0,0.2,0.1,0.2,0.1C115.2,77.2,115.2,77.3,115.1,77.4z"/>
		<path class="st9" d="M107.3,51.3c0.2,0.3,0.4,0.5,0.7,0.8c0.5-2.3,1.8-4.4,3.7-5.9C108.6,47.4,107.4,50.9,107.3,51.3z"/>
		<path class="st9" d="M108.4,52.5c0.7,0.5,1.4,0.8,2.2,1c0.6,0.1,1.1,0.1,1.7,0.1c1.4-0.1,2.7-0.9,3.6-2c1.4-1.8,1.5-4.2,0.3-6.1
			c-2.1,1.6-3.8,3.5-5.3,5.6c0.4-2.7,3.3-5.7,3.4-5.8C111.2,46.6,108.4,52.5,108.4,52.5z"/>
		<path class="st8" d="M110.6,53.5c0.6,0.1,1.1,0.1,1.7,0.1c0-1.5,2.5-4.7,2.6-4.8C113,49.8,111.5,51.5,110.6,53.5z"/>
		<path class="st8" d="M111.3,34.4c-2.1-0.1-4.1,0.2-6.1,0.8c0,0,3-4.5,6.6-6.4C111.7,28.8,106.8,33.5,111.3,34.4z"/>
		<path class="st8" d="M111.5,35.7c-2.5-0.1-5,0.2-7.3,0.9c0,0-7.5,6.3,2.4,35C106.6,71.6,97.8,39.5,111.5,35.7z"/>
		<path class="st8" d="M115.6,76.5V77c0,0-0.1-1.1-2.8-1.3c0.9,0,1.7,0.1,2.5,0.4C115.5,76.1,115.6,76.3,115.6,76.5z"/>
		<path class="st8" d="M110.7,76.4c0,0-1.7,0.1-2.3-0.6c-0.1,0-0.3,0.1-0.4,0.2c-0.1,0.1-0.2,0.2-0.2,0.3V77
			C108.7,76.6,109.7,76.4,110.7,76.4z"/>
		<path class="st8" d="M115.5,72.7c0.5,0.1,0.9,0.6,0.9,1.1v1.6c0,0,0.1-2.2-3.4-2.9C113.8,72.4,114.7,72.5,115.5,72.7z"/>
		<path class="st8" d="M110.5,74.7c0,0-2.2-0.3-2.7-1.9c-0.2,0-0.4,0.1-0.6,0.2v2.4C108.2,74.9,109.3,74.7,110.5,74.7z"/>
		<path class="st9" d="M106.9,75.9c0,0,0-0.2,0-0.4c0-0.3,0-0.6,0-1s0-0.7,0-1c0-0.3,0-0.4,0-0.4s0,0.2,0,0.4c0,0.3,0,0.6,0,1
			s0,0.7,0,1C106.9,75.7,106.9,75.9,106.9,75.9z"/>
		<path class="st9" d="M116.5,73.1c0,0,0,0.2,0,0.4c0,0.3,0,0.6,0,1s0,0.7,0,1c0,0.3,0,0.4,0,0.4s0-0.2,0-0.4c0-0.3,0-0.6,0-1
			s0-0.7,0-1C116.5,73.2,116.5,73.1,116.5,73.1z"/>
		<path class="st9" d="M107.8,77.3c0,0,0-0.1,0-0.2s0-0.2,0-0.4s0-0.3,0-0.4c0-0.1,0-0.2,0-0.2s0,0.1,0,0.2s0,0.2,0,0.4s0,0.3,0,0.4
			S107.8,77.3,107.8,77.3z"/>
		<path class="st9" d="M115.7,76.2c0,0,0,0.1,0,0.2s0,0.2,0,0.4s0,0.3,0,0.4s0,0.2,0,0.2s0-0.1,0-0.2s0-0.2,0-0.4s0-0.3,0-0.4
			C115.7,76.3,115.7,76.2,115.7,76.2z"/>
		
			<linearGradient id="SVGID_33_" gradientUnits="userSpaceOnUse" x1="55.8786" y1="39.7785" x2="47.5986" y2="40.7685" gradientTransform="matrix(1 0 0 -1 0 155.2763)">
			<stop  offset="1.000000e-02" style="stop-color:#891A1C"/>
			<stop  offset="0.23" style="stop-color:#B41D22"/>
			<stop  offset="0.51" style="stop-color:#C61D23"/>
			<stop  offset="1" style="stop-color:#EF4E23"/>
		</linearGradient>
		<polygon class="st35" points="56.6,98.5 62.4,103.5 53.9,110.1 48.2,131.6 42.3,126.7 45.5,112.5 39.6,107.6 		"/>
		
			<linearGradient id="SVGID_34_" gradientUnits="userSpaceOnUse" x1="55.6359" y1="37.6859" x2="47.3459" y2="38.6759" gradientTransform="matrix(1 0 0 -1 0 155.2763)">
			<stop  offset="1.000000e-02" style="stop-color:#891A1C"/>
			<stop  offset="0.23" style="stop-color:#B41D22"/>
			<stop  offset="0.51" style="stop-color:#C61D23"/>
			<stop  offset="1" style="stop-color:#EF4E23"/>
		</linearGradient>
		<path class="st36" d="M45.9,112.1l1-4.8l15.2-3.4l-0.2,4.6l-5,1.2l-2.5,20.3l-5.9,1.3l2.5-20.3L45.9,112.1z"/>
		
			<linearGradient id="SVGID_35_" gradientUnits="userSpaceOnUse" x1="55.6372" y1="37.6971" x2="47.3472" y2="38.6871" gradientTransform="matrix(1 0 0 -1 0 155.2763)">
			<stop  offset="1.000000e-02" style="stop-color:#891A1C"/>
			<stop  offset="0.23" style="stop-color:#B41D22"/>
			<stop  offset="0.51" style="stop-color:#C61D23"/>
			<stop  offset="1" style="stop-color:#EF4E23"/>
		</linearGradient>
		<path class="st37" d="M48.2,131.6l2.5-20.3l-4.8,1.1v-0.3h0.3h-0.3v0.3l-0.4,0.1l1.1-5.5l15.8-3.6l-0.1,5.3l-5,1.1l-2.5,20.3
			L48.2,131.6z M51.5,110.5l-2.6,20.3l5.2-1.1l2.5-20.3l4.9-1.1l0.1-3.9l-14.5,3.3l-0.8,4L51.5,110.5L51.5,110.5z"/>
		
			<linearGradient id="SVGID_36_" gradientUnits="userSpaceOnUse" x1="56.1286" y1="41.8492" x2="47.8386" y2="42.8392" gradientTransform="matrix(1 0 0 -1 0 155.2763)">
			<stop  offset="1.000000e-02" style="stop-color:#891A1C"/>
			<stop  offset="0.23" style="stop-color:#B41D22"/>
			<stop  offset="0.51" style="stop-color:#C61D23"/>
			<stop  offset="1" style="stop-color:#EF4E23"/>
		</linearGradient>
		<path class="st38" d="M42.3,126.7l2.5-20.3l-4.9,1.1v-0.3h0.3H40v0.3l-0.4,0.1l1.1-5.5l15.8-3.6l-0.2,5.3l-5,1.1l-2.5,20.3
			L42.3,126.7L42.3,126.7z M45.7,105.6l-2.5,20.3l5.1-1.2l2.5-20.3l4.9-1.1l0.1-3.9l-14.5,3.2l-0.8,4.1L45.7,105.6z"/>
		
			<linearGradient id="SVGID_37_" gradientUnits="userSpaceOnUse" x1="70.3891" y1="42.5725" x2="61.5191" y2="43.8525" gradientTransform="matrix(1 0 0 -1 0 155.2763)">
			<stop  offset="1.000000e-02" style="stop-color:#891A1C"/>
			<stop  offset="0.23" style="stop-color:#B41D22"/>
			<stop  offset="0.51" style="stop-color:#C61D23"/>
			<stop  offset="1" style="stop-color:#EF4E23"/>
		</linearGradient>
		<polygon class="st39" points="76.3,100.2 70.4,95.3 59.4,103.3 54.8,123.8 60.7,128.7 73.8,120.3 67.9,115.4 74.7,110.4 
			68.9,105.5 		"/>
		
			<linearGradient id="SVGID_38_" gradientUnits="userSpaceOnUse" x1="70.098" y1="40.5845" x2="61.228" y2="41.8645" gradientTransform="matrix(1 0 0 -1 0 155.2763)">
			<stop  offset="1.000000e-02" style="stop-color:#891A1C"/>
			<stop  offset="0.23" style="stop-color:#B41D22"/>
			<stop  offset="0.51" style="stop-color:#C61D23"/>
			<stop  offset="1" style="stop-color:#EF4E23"/>
		</linearGradient>
		<path class="st40" d="M61.1,128.3l3.1-25l11.7-2.7l-0.6,4.7l-6,1.4l-0.7,5.5l5.7-1.3l-0.6,4.5l-5.7,1.3l-0.7,5.5l6-1.4l-0.6,4.9
			L61.1,128.3z"/>
		
			<linearGradient id="SVGID_39_" gradientUnits="userSpaceOnUse" x1="70.098" y1="40.5845" x2="61.228" y2="41.8645" gradientTransform="matrix(1 0 0 -1 0 155.2763)">
			<stop  offset="1.000000e-02" style="stop-color:#891A1C"/>
			<stop  offset="0.23" style="stop-color:#B41D22"/>
			<stop  offset="0.51" style="stop-color:#C61D23"/>
			<stop  offset="1" style="stop-color:#EF4E23"/>
		</linearGradient>
		<path class="st41" d="M61,128.6v-0.3l0.3-0.1l-0.3,0.1V128.6l-0.4,0.1l3.2-25.7l12.4-2.8l-0.7,5.4l-6,1.4l-0.6,4.8l5.7-1.3
			l-0.6,5.2l-5.7,1.3l-0.6,4.8l6-1.4l-0.7,5.6L61,128.6L61,128.6z M72.5,125.4l0.5-4.2l-6,1.4l0.8-6.2l5.7-1.3l0.5-3.8l-5.7,1.3
			l0.8-6.1l6-1.4l0.5-4l-11,2.5l-3,24.3L72.5,125.4L72.5,125.4z"/>
		
			<linearGradient id="SVGID_40_" gradientUnits="userSpaceOnUse" x1="70.6787" y1="44.5496" x2="61.8087" y2="45.8396" gradientTransform="matrix(1 0 0 -1 0 155.2763)">
			<stop  offset="1.000000e-02" style="stop-color:#891A1C"/>
			<stop  offset="0.23" style="stop-color:#B41D22"/>
			<stop  offset="0.51" style="stop-color:#C61D23"/>
			<stop  offset="1" style="stop-color:#EF4E23"/>
		</linearGradient>
		<path class="st42" d="M55.2,123.7v-0.3l0.4-0.1l-0.4,0.1V123.7l-0.4,0.1L58,98.1l12.4-2.8l-0.7,5.4l-6,1.4l-0.6,4.8l5.7-1.3
			l-0.6,5.2l-5.7,1.3l-0.6,4.8l6-1.4l-0.7,5.6L55.2,123.7L55.2,123.7z M66.6,120.5l0.5-4.2l-6,1.4l0.8-6.2l5.7-1.3l0.5-3.8l-5.7,1.3
			l0.8-6.1l6-1.4l0.5-4l-11,2.5l-3,24.3L66.6,120.5L66.6,120.5z"/>
		
			<linearGradient id="SVGID_41_" gradientUnits="userSpaceOnUse" x1="90.0588" y1="46.2909" x2="75.5188" y2="48.0409" gradientTransform="matrix(1 0 0 -1 0 155.2763)">
			<stop  offset="1.000000e-02" style="stop-color:#891A1C"/>
			<stop  offset="0.23" style="stop-color:#B41D22"/>
			<stop  offset="0.51" style="stop-color:#C61D23"/>
			<stop  offset="1" style="stop-color:#EF4E23"/>
		</linearGradient>
		<polygon class="st43" points="79,93.4 84.8,98.3 90.3,90.8 96.2,95.7 86.9,108.8 85.6,123 79.8,118.1 75.1,125.4 69.3,120.5 		"/>
		
			<linearGradient id="SVGID_42_" gradientUnits="userSpaceOnUse" x1="89.8083" y1="44.1763" x2="75.2683" y2="45.9363" gradientTransform="matrix(1 0 0 -1 0 155.2763)">
			<stop  offset="1.000000e-02" style="stop-color:#891A1C"/>
			<stop  offset="0.23" style="stop-color:#B41D22"/>
			<stop  offset="0.51" style="stop-color:#C61D23"/>
			<stop  offset="1" style="stop-color:#EF4E23"/>
		</linearGradient>
		<path class="st44" d="M89.3,97.6l6.2-1.4l-6.9,11.5l3.6,13.6l-6.2,1.4l-2.2-9.1l-1.5,2.6l-0.9,7.6l-5.8,1.3l3.1-25l5.8-1.3l-1.1,9
			L89.3,97.6z"/>
		
			<linearGradient id="SVGID_43_" gradientUnits="userSpaceOnUse" x1="89.8072" y1="44.2169" x2="75.2772" y2="45.9669" gradientTransform="matrix(1 0 0 -1 0 155.2763)">
			<stop  offset="1.000000e-02" style="stop-color:#891A1C"/>
			<stop  offset="0.23" style="stop-color:#B41D22"/>
			<stop  offset="0.51" style="stop-color:#C61D23"/>
			<stop  offset="1" style="stop-color:#EF4E23"/>
		</linearGradient>
		<path class="st45" d="M85.6,123l-2.1-8.6l-1,1.7l-1,7.8l-6.5,1.5l3.3-25.7l6.5-1.5l-1,7.9l5.2-8.7l0.1-0.2l7-1.6L89,107.5
			l3.6,13.9L85.6,123z M86.2,122.2l5.5-1.2l-3.5-13.3l6.7-11l-5.4,1.2l-5.9,9.9h-0.7l1.1-8.6l-5.1,1.1l-3,24.3l5.1-1.2l0.9-7.3
			l2-3.5L86.2,122.2L86.2,122.2z"/>
		
			<linearGradient id="SVGID_44_" gradientUnits="userSpaceOnUse" x1="90.305" y1="48.3288" x2="75.765" y2="50.0788" gradientTransform="matrix(1 0 0 -1 0 155.2763)">
			<stop  offset="1.000000e-02" style="stop-color:#891A1C"/>
			<stop  offset="0.23" style="stop-color:#B41D22"/>
			<stop  offset="0.51" style="stop-color:#C61D23"/>
			<stop  offset="1" style="stop-color:#EF4E23"/>
		</linearGradient>
		<path class="st46" d="M79.8,118.1l-2.1-8.6l-1,1.7l-1,7.8l-6.5,1.5l3.2-25.7l6.5-1.5l-1,7.9l5.2-8.7l0.1-0.2l7-1.6l-7.1,11.8
			l3.6,13.9L79.8,118.1L79.8,118.1z M80.4,117.3l5.5-1.2l-3.5-13.3l6.7-11L83.6,93l-5.9,9.9h-0.7l1.1-8.6l-5.1,1.2l-3,24.3l5.1-1.2
			l0.9-7.3l2-3.5L80.4,117.3L80.4,117.3z"/>
		
			<linearGradient id="SVGID_45_" gradientUnits="userSpaceOnUse" x1="107.6585" y1="50.2082" x2="91.4385" y2="53.1882" gradientTransform="matrix(1 0 0 -1 0 155.2763)">
			<stop  offset="1.000000e-02" style="stop-color:#891A1C"/>
			<stop  offset="0.23" style="stop-color:#B41D22"/>
			<stop  offset="0.51" style="stop-color:#C61D23"/>
			<stop  offset="1" style="stop-color:#EF4E23"/>
		</linearGradient>
		<polygon class="st47" points="88.2,116.1 94.1,121 99.6,113.5 105.4,118.4 113.8,91.6 107.9,86.7 102.7,94.1 96.9,89.2 		"/>
		
			<linearGradient id="SVGID_46_" gradientUnits="userSpaceOnUse" x1="107.3245" y1="48.336" x2="91.0945" y2="51.316" gradientTransform="matrix(1 0 0 -1 0 155.2763)">
			<stop  offset="1.000000e-02" style="stop-color:#891A1C"/>
			<stop  offset="0.23" style="stop-color:#B41D22"/>
			<stop  offset="0.51" style="stop-color:#C61D23"/>
			<stop  offset="1" style="stop-color:#EF4E23"/>
		</linearGradient>
		<path class="st48" d="M94.5,120.6l3.1-25l4.8-1.1l3.9,11l1.6-12.3l5.5-1.2l-3.1,25l-4.6,1l-4.1-11l-1.5,12.2L94.5,120.6z"/>
		
			<linearGradient id="SVGID_47_" gradientUnits="userSpaceOnUse" x1="107.3186" y1="48.3044" x2="91.0886" y2="51.2844" gradientTransform="matrix(1 0 0 -1 0 155.2763)">
			<stop  offset="1.000000e-02" style="stop-color:#891A1C"/>
			<stop  offset="0.23" style="stop-color:#B41D22"/>
			<stop  offset="0.51" style="stop-color:#C61D23"/>
			<stop  offset="1" style="stop-color:#EF4E23"/>
		</linearGradient>
		<path class="st49" d="M105.4,118.4l-3.7-9.8l-1.4,11l-5.9,1.3v-0.3l0.3-0.1l-0.3,0.1v0.3l-0.3,0.1l3.2-25.7l5.4-1.2l3.5,9.8
			l1.4-11l6.2-1.3l-3.2,25.7L105.4,118.4L105.4,118.4z M99.7,119.1l1.5-11.9l0.7-0.3l4,10.8l4-0.9l3-24.3l-4.8,1.1l-1.4,11.9
			l-0.7,0.3l-3.8-10.8l-4.2,1l-3,24.3L99.7,119.1L99.7,119.1z"/>
		
			<linearGradient id="SVGID_48_" gradientUnits="userSpaceOnUse" x1="108.0021" y1="52.0777" x2="91.7821" y2="55.0577" gradientTransform="matrix(1 0 0 -1 0 155.2763)">
			<stop  offset="1.000000e-02" style="stop-color:#891A1C"/>
			<stop  offset="0.23" style="stop-color:#B41D22"/>
			<stop  offset="0.51" style="stop-color:#C61D23"/>
			<stop  offset="1" style="stop-color:#EF4E23"/>
		</linearGradient>
		<path class="st50" d="M99.6,113.5l-3.6-9.8l-1.4,10.9l-5.9,1.3v-0.3l0.3-0.1l-0.3,0.1v0.3l-0.4,0.1l3.2-25.6l5.4-1.2l3.5,9.8
			l1.4-11l6.2-1.4l-3.2,25.7L99.6,113.5z M100.1,112.7l4-0.9l3-24.3l-4.8,1.1l-1.5,11.9l-0.7,0.3L96.3,90l-4.2,1l-3,24.3l4.8-1.1
			l1.5-11.9l0.7-0.3L100.1,112.7z"/>
		<path class="st8" d="M40.1,107.2l1-4.8L56.2,99l-0.1,4.6l-5,1.1L48.5,125l-5.9,1.3l2.5-20.3L40.1,107.2z"/>
		<path class="st8" d="M55.2,123.4l3.1-25l11.7-2.7l-0.6,4.7l-6,1.4l-0.7,5.5l5.7-1.3l-0.6,4.5l-5.7,1.3l-0.7,5.5l6-1.4l-0.6,4.9
			L55.2,123.4z"/>
		<path class="st8" d="M83.5,92.6l6.2-1.4l-6.9,11.5l3.6,13.6l-6.2,1.4l-2.1-9.1l-1.5,2.6l-1,7.6l-5.8,1.3l3.1-25l5.8-1.3l-1.1,9
			L83.5,92.6z"/>
		<path class="st8" d="M88.6,115.7l3.1-25l4.8-1.1l3.9,11l1.5-12.3l5.5-1.2l-3.1,25l-4.6,1l-4.1-11l-1.5,12.3L88.6,115.7z"/>
		
			<linearGradient id="SVGID_49_" gradientUnits="userSpaceOnUse" x1="127.6285" y1="55.0579" x2="113.3185" y2="57.2179" gradientTransform="matrix(1 0 0 -1 0 155.2763)">
			<stop  offset="1.000000e-02" style="stop-color:#891A1C"/>
			<stop  offset="0.23" style="stop-color:#B41D22"/>
			<stop  offset="0.51" style="stop-color:#C61D23"/>
			<stop  offset="1" style="stop-color:#EF4E23"/>
		</linearGradient>
		<polygon class="st51" points="109.7,109.4 115.2,114.1 125.4,110.3 130.9,89 125.1,84.1 114.5,89.2 		"/>
		
			<linearGradient id="SVGID_50_" gradientUnits="userSpaceOnUse" x1="127.3319" y1="53.1403" x2="113.0319" y2="55.3003" gradientTransform="matrix(1 0 0 -1 0 155.2763)">
			<stop  offset="1.000000e-02" style="stop-color:#891A1C"/>
			<stop  offset="0.23" style="stop-color:#B41D22"/>
			<stop  offset="0.51" style="stop-color:#C61D23"/>
			<stop  offset="1" style="stop-color:#EF4E23"/>
		</linearGradient>
		<path class="st52" d="M121.5,114.6c-1.5,0.5-3.1,0.4-4.7-0.1c-1.1-0.4-2.1-1.2-2.7-2.3c-0.6-1.2-1-2.5-1.1-3.8
			c-0.1-1.5-0.1-3.1,0.1-4.6c0.2-1.6,0.6-3.2,1.1-4.8c0.5-1.6,1.2-3.2,2.2-4.6c0.9-1.4,2.1-2.7,3.4-3.8c1.5-1.1,3.1-1.9,4.9-2.2
			c1.5-0.4,3.1-0.4,4.6,0.1c1.1,0.4,2.1,1.3,2.7,2.3c0.6,1.2,1,2.5,1.1,3.8c0.1,1.5,0.1,3-0.1,4.6c-0.2,1.6-0.6,3.3-1.1,4.9
			c-0.5,1.6-1.2,3.1-2.1,4.6c-0.9,1.4-2.1,2.7-3.4,3.7C124.9,113.4,123.2,114.2,121.5,114.6z M124.1,93.6c-0.8,0.2-1.6,0.7-2.2,1.3
			c-0.6,0.7-1.1,1.4-1.5,2.2c-0.4,0.9-0.7,1.8-0.9,2.7c-0.2,0.9-0.4,1.8-0.5,2.7c-0.1,0.9-0.1,1.8-0.1,2.7c0,0.9,0.1,1.7,0.3,2.6
			c0.2,0.7,0.5,1.3,1,1.8c0.5,0.5,1.2,0.6,1.9,0.4c0.8-0.2,1.6-0.7,2.1-1.3c0.6-0.7,1.1-1.5,1.5-2.4c0.4-0.9,0.8-1.9,1-2.9
			c0.2-0.9,0.4-1.9,0.5-2.8c0.1-0.9,0.2-1.8,0.2-2.6c0-0.8-0.2-1.6-0.4-2.4c-0.2-0.6-0.5-1.2-1-1.7
			C125.4,93.6,124.7,93.4,124.1,93.6z"/>
		
			<linearGradient id="SVGID_51_" gradientUnits="userSpaceOnUse" x1="127.3289" y1="53.1207" x2="113.0289" y2="55.2807" gradientTransform="matrix(1 0 0 -1 0 155.2763)">
			<stop  offset="1.000000e-02" style="stop-color:#891A1C"/>
			<stop  offset="0.23" style="stop-color:#B41D22"/>
			<stop  offset="0.51" style="stop-color:#C61D23"/>
			<stop  offset="1" style="stop-color:#EF4E23"/>
		</linearGradient>
		<path class="st53" d="M116.6,114.8c-1.2-0.5-2.2-1.3-2.8-2.4l0,0c-0.7-1.2-1-2.5-1.1-3.9l0,0c-0.1-1.5-0.1-3.1,0.1-4.7l0,0
			c0.2-1.7,0.6-3.3,1.1-4.9l0,0c0.5-1.7,1.3-3.2,2.2-4.7l0,0c1-1.5,2.2-2.8,3.6-3.9l0,0c1.5-1.1,3.2-1.9,5.1-2.3l0,0
			c1.6-0.5,3.2-0.4,4.8,0.1l0,0c1.2,0.5,2.2,1.3,2.8,2.5l0,0c0.7,1.2,1.1,2.6,1.1,3.9l0,0c0.1,1.5,0.1,3.1-0.1,4.6l0,0
			c-0.2,1.7-0.6,3.3-1.1,4.9l0,0c-0.5,1.7-1.3,3.2-2.2,4.7l0,0c-1,1.5-2.2,2.8-3.6,3.8l0,0c-1.5,1.1-3.2,1.9-5.1,2.3l0,0v-0.3v-0.3
			c1.7-0.4,3.3-1.1,4.7-2.1l0,0c1.3-1,2.4-2.2,3.3-3.6l0,0c0.9-1.4,1.6-2.9,2.1-4.4l0,0c0.5-1.5,0.8-3.1,1-4.8l0,0
			c0.2-1.5,0.2-3,0.1-4.5l0,0c-0.1-1.3-0.5-2.6-1.1-3.7l0,0c-0.6-1-1.5-1.8-2.6-2.2l0,0c-1.4-0.5-3-0.5-4.4-0.1l0,0
			c-1.7,0.4-3.3,1.1-4.7,2.1l0,0c-1.3,1-2.4,2.2-3.3,3.6l0,0c-0.9,1.4-1.6,2.9-2.1,4.5l0,0c-0.5,1.5-0.9,3.1-1.1,4.7l0,0
			c-0.2,1.5-0.2,3-0.1,4.5l0,0c0.1,1.3,0.4,2.6,1.1,3.7l0,0c0.6,1,1.5,1.8,2.6,2.2l0,0c1.5,0.5,3,0.5,4.5,0l0,0v0.3v0.3
			C119.8,115.4,118.1,115.3,116.6,114.8L116.6,114.8z M119.8,109.9c-0.5-0.6-0.9-1.3-1-2l0,0c-0.2-0.9-0.3-1.8-0.3-2.7l0,0
			c0-0.9,0.1-1.9,0.2-2.8l0,0c0.1-0.9,0.3-1.8,0.5-2.7l0,0c0.2-1,0.6-1.9,1-2.8l0,0c0.4-0.9,0.9-1.6,1.5-2.3l0,0
			c0.6-0.7,1.5-1.2,2.4-1.5l0,0c0.7-0.2,1.5,0,2.1,0.5l0,0c0.5,0.5,0.8,1.1,1,1.8l0,0c0.2,0.8,0.3,1.6,0.3,2.5l0,0
			c0,0.9-0.1,1.8-0.2,2.7l0,0c-0.1,0.9-0.3,1.8-0.5,2.8l0,0c-0.2,1-0.6,2-1,2.9l0,0c-0.4,0.9-0.9,1.8-1.6,2.5l0,0
			c-0.6,0.7-1.5,1.3-2.4,1.5l0,0C121.2,110.7,120.4,110.5,119.8,109.9L119.8,109.9z M122.2,95.1c-0.6,0.6-1,1.3-1.4,2.1l0,0
			c-0.4,0.8-0.7,1.7-0.9,2.6l0,0c-0.2,0.9-0.4,1.8-0.5,2.7l0,0c-0.1,0.9-0.2,1.8-0.2,2.7l0,0c0,0.9,0.1,1.7,0.3,2.5l0,0
			c0.1,0.7,0.4,1.3,0.9,1.8l0,0c0.4,0.4,1.1,0.6,1.6,0.4l0,0c0.7-0.2,1.4-0.6,1.8-1.1l0,0c0.6-0.7,1-1.5,1.4-2.3l0,0
			c0.4-0.9,0.7-1.8,0.9-2.8l0,0c0.2-0.9,0.4-1.8,0.5-2.8l0,0c0.1-0.9,0.2-1.7,0.2-2.6l0,0c0-0.8-0.1-1.6-0.3-2.3l0,0
			c-0.1-0.6-0.5-1.1-0.9-1.6l0,0c-0.5-0.4-1.1-0.5-1.6-0.4l0,0C123.3,94.1,122.7,94.5,122.2,95.1L122.2,95.1z M124,93.9l0.1-0.3
			L124,93.9z"/>
		
			<linearGradient id="SVGID_52_" gradientUnits="userSpaceOnUse" x1="127.9314" y1="57.067" x2="113.6214" y2="59.217" gradientTransform="matrix(1 0 0 -1 0 155.2763)">
			<stop  offset="1.000000e-02" style="stop-color:#891A1C"/>
			<stop  offset="0.23" style="stop-color:#B41D22"/>
			<stop  offset="0.51" style="stop-color:#C61D23"/>
			<stop  offset="1" style="stop-color:#EF4E23"/>
		</linearGradient>
		<path class="st54" d="M115.6,110l0.1-0.3v-0.3c1.7-0.4,3.3-1.1,4.7-2.1l0,0c1.3-1,2.4-2.2,3.3-3.6l0,0c0.9-1.4,1.6-2.9,2.1-4.4
			l0,0c0.5-1.5,0.8-3.1,1.1-4.8l0,0c0.2-1.5,0.2-3,0.1-4.5l0,0c-0.1-1.3-0.4-2.6-1.1-3.7l0,0c-0.6-1-1.5-1.8-2.6-2.2l0,0
			c-1.4-0.5-3-0.5-4.4-0.1l0,0c-1.7,0.4-3.3,1.1-4.7,2.1l0,0c-1.3,1-2.4,2.2-3.3,3.6l0,0c-0.9,1.4-1.6,2.9-2.1,4.5l0,0
			c-0.5,1.5-0.9,3.1-1.1,4.7l0,0c-0.2,1.5-0.2,3-0.1,4.5l0,0c0.1,1.3,0.4,2.6,1.1,3.7l0,0c0.6,1,1.5,1.8,2.6,2.2l0,0
			c1.5,0.5,3,0.5,4.5,0l0,0v0.3L115.6,110c-1.5,0.4-3.2,0.4-4.8-0.1l0,0c-1.2-0.4-2.2-1.3-2.8-2.4l0,0c-0.6-1.2-1-2.5-1.1-3.9l0,0
			c-0.1-1.6-0.1-3.1,0.1-4.7l0,0c0.2-1.7,0.6-3.3,1.1-4.9l0,0c0.5-1.7,1.3-3.2,2.2-4.7l0,0c1-1.5,2.2-2.8,3.6-3.9l0,0
			c1.5-1.1,3.2-1.9,5.1-2.3l0,0c1.6-0.5,3.2-0.4,4.8,0.1l0,0c1.2,0.5,2.2,1.3,2.8,2.4l0,0c0.7,1.2,1,2.6,1.1,3.9l0,0
			c0.1,1.5,0.1,3.1-0.1,4.6l0,0c-0.2,1.7-0.6,3.3-1.1,4.9l0,0c-0.5,1.7-1.3,3.2-2.2,4.7l0,0c-1,1.5-2.2,2.7-3.6,3.8l0,0
			C119.2,108.8,117.4,109.6,115.6,110L115.6,110L115.6,110z M114,105c-0.5-0.6-0.9-1.3-1-2l0,0c-0.2-0.9-0.3-1.8-0.3-2.7l0,0
			c0-0.9,0.1-1.8,0.2-2.7l0,0c0.1-0.9,0.3-1.8,0.5-2.7l0,0c0.2-1,0.6-1.9,1-2.8l0,0c0.4-0.8,0.9-1.6,1.5-2.3l0,0
			c0.6-0.7,1.5-1.2,2.4-1.5l0,0c0.7-0.2,1.5,0,2.1,0.5l0,0c0.5,0.5,0.8,1.1,1,1.8l0,0c0.2,0.8,0.3,1.6,0.3,2.5l0,0
			c0,0.9-0.1,1.8-0.2,2.7l0,0c-0.1,0.9-0.3,1.8-0.5,2.8l0,0c-0.2,1-0.6,2-1,2.9l0,0c-0.4,0.9-0.9,1.8-1.6,2.5l0,0
			c-0.6,0.8-1.5,1.3-2.4,1.5l0,0C115.3,105.8,114.5,105.6,114,105L114,105z M116.3,90.1c-0.6,0.6-1,1.4-1.4,2.1l0,0
			c-0.4,0.8-0.7,1.7-0.9,2.6l0,0c-0.2,0.9-0.4,1.8-0.5,2.7l0,0c-0.1,0.9-0.2,1.8-0.2,2.7l0,0c0,0.9,0.1,1.7,0.2,2.5l0,0
			c0.1,0.7,0.5,1.3,0.9,1.8l0,0c0.4,0.4,1.1,0.6,1.6,0.4l0,0c0.7-0.2,1.4-0.6,1.8-1.2l0,0c0.6-0.7,1-1.5,1.4-2.3l0,0
			c0.4-0.9,0.7-1.8,0.9-2.8l0,0c0.2-1,0.4-1.9,0.5-2.8l0,0c0.1-0.9,0.2-1.7,0.2-2.6l0,0c0-0.8-0.1-1.6-0.3-2.3l0,0
			c-0.2-0.6-0.5-1.1-0.9-1.6l0,0c-0.5-0.4-1.1-0.5-1.6-0.4l0,0C117.4,89.2,116.8,89.6,116.3,90.1L116.3,90.1z M118.2,89l0.1-0.3
			L118.2,89L118.2,89z"/>
		<path class="st8" d="M115.6,109.6c-1.5,0.5-3.2,0.5-4.7,0c-1.1-0.4-2.1-1.3-2.7-2.3c-0.6-1.2-1-2.5-1.1-3.8
			c-0.1-1.5-0.1-3.1,0.1-4.6c0.2-1.6,0.6-3.2,1.1-4.8c0.5-1.6,1.3-3.2,2.2-4.6c0.9-1.4,2.1-2.7,3.4-3.8c1.5-1.1,3.2-1.9,5-2.2
			c1.5-0.4,3.1-0.4,4.6,0.1c1.1,0.4,2.1,1.3,2.7,2.3c0.7,1.2,1,2.5,1.1,3.8c0.1,1.5,0.1,3.1-0.1,4.6c-0.2,1.6-0.6,3.2-1.1,4.8
			c-0.5,1.6-1.3,3.1-2.2,4.6c-0.9,1.4-2.1,2.7-3.4,3.7C119.1,108.5,117.4,109.3,115.6,109.6z M118.2,88.6c-0.8,0.2-1.6,0.7-2.1,1.3
			c-0.6,0.7-1.1,1.4-1.4,2.2c-0.4,0.9-0.7,1.8-0.9,2.7c-0.2,0.9-0.4,1.8-0.5,2.7c-0.1,0.9-0.2,1.8-0.2,2.7c0,0.9,0.1,1.7,0.3,2.6
			c0.1,0.7,0.5,1.3,0.9,1.9c0.5,0.5,1.2,0.6,1.9,0.4c0.8-0.2,1.6-0.7,2.1-1.3c0.6-0.7,1.1-1.5,1.5-2.4c0.4-0.9,0.8-1.9,1-2.9
			c0.2-1,0.4-1.9,0.5-2.8c0.1-0.9,0.2-1.8,0.2-2.6c0-0.8-0.1-1.6-0.3-2.4c-0.2-0.6-0.5-1.2-1-1.7C119.6,88.6,118.9,88.5,118.2,88.6z
			"/>
		<path class="st8" d="M129.6,81.4l11.9-2.9l-0.4,4.8l-6.3,1.6l-0.5,5.5l6-1.5l-0.4,4.5l-6.1,1.5l-0.9,10.5l-5.6,1.4L129.6,81.4z"/>
		
			<linearGradient id="SVGID_53_" gradientUnits="userSpaceOnUse" x1="127.0502" y1="132.9457" x2="143.0102" y2="127.3757" gradientTransform="matrix(1 -7.000000e-02 0 -1 0 233.942)">
			<stop  offset="0" style="stop-color:#00BEE7"/>
			<stop  offset="0.17" style="stop-color:#20AFDC"/>
			<stop  offset="0.33" style="stop-color:#0087B4"/>
			<stop  offset="0.5" style="stop-color:#0073A1"/>
			<stop  offset="0.67" style="stop-color:#00527D"/>
			<stop  offset="0.83" style="stop-color:#144069"/>
			<stop  offset="1" style="stop-color:#192951"/>
		</linearGradient>
		<path class="st55" d="M147.9,82.9l-6-4.9l-12.6,3.1v0.3l-2.1,25.6l6,4.9l6.3-1.5l0.9-10.5l6-1.5l0.4-5.2l0,0l-4.4-3.7l5.2-1.3
			L147.9,82.9z M141.1,83.3l-6.3,1.6l-0.5,5.5l6-1.5l-0.4,4.5l-6.1,1.5l-0.9,10.5l-5.6,1.4l2.2-25.3l11.9-2.9L141.1,83.3z"/>
		<path class="st8" d="M141.7,103.3l2.1-25.3l11.5-2.8l-0.4,4.8l-5.9,1.4l-0.5,5.5l5.6-1.3l-0.4,4.5l-5.6,1.4l-0.5,5.5l5.9-1.4
			l-0.4,4.9L141.7,103.3z"/>
		
			<linearGradient id="SVGID_54_" gradientUnits="userSpaceOnUse" x1="141.3089" y1="134.1913" x2="158.9089" y2="129.6913" gradientTransform="matrix(1 -7.000000e-02 0 -1 0 233.942)">
			<stop  offset="0" style="stop-color:#00BEE7"/>
			<stop  offset="0.17" style="stop-color:#20AFDC"/>
			<stop  offset="0.33" style="stop-color:#0087B4"/>
			<stop  offset="0.5" style="stop-color:#0073A1"/>
			<stop  offset="0.67" style="stop-color:#00527D"/>
			<stop  offset="0.83" style="stop-color:#144069"/>
			<stop  offset="1" style="stop-color:#192951"/>
		</linearGradient>
		<path class="st56" d="M161.7,79.7l-6-4.9l-12.2,3l-2.1,26l6,4.9l0.3-0.1l11.9-3l0.5-5.6l-4.5-3.6l4.6-1.1l0.4-5.2l-4.5-3.6
			l5.2-1.3L161.7,79.7z M154.9,80l-5.9,1.4l-0.5,5.5l5.6-1.3l-0.4,4.5l-5.6,1.4l-0.5,5.5l5.9-1.4l-0.4,4.9l-11.5,2.8l2.1-25.3
			l11.5-2.8L154.9,80z"/>
		<path class="st8" d="M157.2,93.6c0.4,0.6,0.9,1.1,1.6,1.4c0.7,0.3,1.4,0.4,2.2,0.4c0.7,0,1.4-0.3,2.1-0.7c0.6-0.4,1.1-1.1,1.2-1.8
			c0.2-0.6,0.2-1.3,0-1.9c-0.2-0.6-0.6-1-1.2-1.3c-0.6-0.3-1.2-0.4-1.8-0.5c-0.6-0.1-1.3-0.2-1.9-0.3c-0.6-0.1-1.2-0.4-1.7-0.7
			c-0.6-0.4-1-1-1.1-1.7c-0.2-0.6-0.3-1.2-0.3-1.8c0-0.7,0-1.3,0.1-2c0.1-0.6,0.2-1.3,0.4-1.9c0.1-0.5,0.3-1,0.6-1.5
			c0.4-0.8,0.8-1.5,1.4-2.2c1.2-1.5,2.7-2.7,4.4-3.5c1-0.5,2-0.8,3-1c0.3-0.1,0.7-0.1,1-0.1c0.4,0,0.7,0,1.1,0
			c0.4,0,0.7,0.1,1.1,0.2c0.3,0.1,0.6,0.2,0.9,0.4l-1.4,6.6c-0.2-0.7-0.8-1.3-1.4-1.6c-0.6-0.2-1.2-0.2-1.7-0.1
			c-1,0.2-1.8,0.7-2.5,1.5c-0.6,0.7-1,1.6-1.2,2.6c-0.2,0.7-0.1,1.4,0.4,2c0.5,0.5,1.1,0.7,1.8,0.8c0.8,0.1,1.6,0.3,2.4,0.4
			c0.7,0.1,1.3,0.4,1.9,0.7c0.5,0.4,1,0.9,1.3,1.4c0.4,0.8,0.5,1.7,0.5,2.6c0,0.9-0.1,1.9-0.4,2.8c-0.2,0.9-0.6,1.7-1.1,2.5
			c-0.4,0.6-0.8,1.1-1.3,1.6c-0.5,0.4-1,0.8-1.6,1.2c-0.5,0.3-1.1,0.6-1.7,0.8c-0.6,0.2-1.1,0.4-1.7,0.5c-0.5,0.1-1.1,0.2-1.7,0.3
			c-0.6,0.1-1.1,0.1-1.7,0.1c-0.5,0-1,0-1.5-0.1c-0.4-0.1-0.8-0.2-1.2-0.3L157.2,93.6z"/>
		
			<linearGradient id="SVGID_55_" gradientUnits="userSpaceOnUse" x1="151.9535" y1="140.1922" x2="170.7635" y2="131.7722" gradientTransform="matrix(1 -7.000000e-02 0 -1 0 233.942)">
			<stop  offset="0" style="stop-color:#00BEE7"/>
			<stop  offset="0.17" style="stop-color:#20AFDC"/>
			<stop  offset="0.33" style="stop-color:#0087B4"/>
			<stop  offset="0.5" style="stop-color:#0073A1"/>
			<stop  offset="0.67" style="stop-color:#00527D"/>
			<stop  offset="0.83" style="stop-color:#144069"/>
			<stop  offset="1" style="stop-color:#192951"/>
		</linearGradient>
		<path class="st57" d="M174.6,90.6l-5.5-4.5c-0.1-0.1-0.3-0.2-0.4-0.3c0.5-1.3,1.6-2.3,3-2.5c0.1,0,0.1,0,0.2,0l3,2.5l1.7-8.1
			l-6-4.9l-0.1-0.1c-0.3-0.2-0.6-0.3-1-0.4c-0.4-0.1-0.7-0.2-1.1-0.2c-0.4,0-0.7,0-1.1,0c-0.3,0-0.7,0.1-1,0.2l-0.6,0.1
			c-0.9,0.2-1.7,0.5-2.6,0.9c-0.9,0.4-1.8,1-2.6,1.6c-1.5,1.2-2.6,2.7-3.4,4.4c-0.2,0.5-0.4,1-0.6,1.5c-0.2,0.7-0.3,1.3-0.4,2
			c0,0.3-0.1,0.5-0.1,0.8c0,0.4,0,0.8,0,1.2c0,0.6,0.1,1.3,0.3,1.9c0.1,0.6,0.4,1.1,0.8,1.5l0,0l6.4,5.2l-0.1,0.7
			c-0.1,0.1-0.3,0.3-0.4,0.4c-0.4,0.2-0.7,0.4-1.1,0.5c-0.2,0.1-0.5,0.1-0.7,0.1c-0.3,0-0.6,0-0.9-0.1l-3.1-2.5l-0.2,1.1l-0.8,5.9
			l6,4.9l0.2,0.1c0.4,0.2,0.8,0.3,1.2,0.3c0.5,0.1,1,0.1,1.6,0.1c0.6,0,1.1,0,1.7-0.1c0.6-0.1,1.1-0.2,1.7-0.3
			c0.6-0.1,1.2-0.3,1.8-0.6c0.6-0.2,1.2-0.5,1.7-0.8c0.6-0.4,1.1-0.8,1.6-1.2c0.5-0.5,1-1.1,1.4-1.7c0.5-0.8,0.9-1.7,1.1-2.6
			c0.2-0.7,0.3-1.3,0.4-2c0-0.3,0-0.6,0-0.9c0-0.9-0.2-1.9-0.5-2.7C175.6,91.4,175.2,90.9,174.6,90.6z M169.7,92.8
			c-0.2,0.9-0.6,1.7-1.1,2.5c-0.4,0.6-0.8,1.1-1.3,1.6c-0.5,0.4-1,0.8-1.6,1.2c-0.5,0.3-1.1,0.6-1.7,0.8c-0.6,0.2-1.1,0.4-1.7,0.5
			c-0.5,0.1-1.1,0.2-1.7,0.3c-0.6,0.1-1.1,0.1-1.7,0.1c-0.5,0-1,0-1.5-0.1c-0.4-0.1-0.8-0.2-1.2-0.3l0.8-5.7
			c0.4,0.6,0.9,1.1,1.6,1.4c0.7,0.3,1.4,0.4,2.2,0.4c0.7,0,1.4-0.3,2.1-0.7c0.6-0.4,1.1-1.1,1.2-1.8c0.2-0.6,0.2-1.3,0-1.9
			c-0.2-0.6-0.6-1-1.2-1.3c-0.6-0.3-1.2-0.4-1.8-0.5c-0.6-0.1-1.3-0.2-1.9-0.3c-0.6-0.1-1.2-0.4-1.7-0.7c-0.6-0.4-1-1-1.1-1.7
			c-0.2-0.6-0.3-1.2-0.3-1.8c0-0.7,0-1.3,0.1-2c0.1-0.6,0.2-1.3,0.4-1.9c0.1-0.5,0.3-1,0.6-1.5c0.4-0.8,0.8-1.5,1.4-2.2
			c1.2-1.5,2.7-2.7,4.4-3.5c1-0.5,2-0.8,3-1c0.3-0.1,0.7-0.1,1-0.1c0.4,0,0.7,0,1.1,0c0.4,0,0.7,0.1,1.1,0.2
			c0.3,0.1,0.6,0.2,0.9,0.4l-1.4,6.7c-0.2-0.7-0.8-1.3-1.4-1.6c-0.6-0.2-1.2-0.2-1.7-0.1c-1,0.2-1.8,0.7-2.5,1.5
			c-0.6,0.7-1,1.6-1.2,2.6c-0.2,0.7-0.1,1.4,0.4,2c0.5,0.5,1.1,0.7,1.8,0.8c0.8,0.1,1.6,0.3,2.4,0.4c0.7,0.1,1.3,0.4,1.9,0.7
			c0.5,0.4,1,0.9,1.3,1.4c0.4,0.8,0.5,1.7,0.5,2.6C170.1,91,170,91.9,169.7,92.8z"/>
		<path class="st8" d="M172,76.3l0.8-4.9l14.9-3.7l0.1,4.7l-4.9,1.2l-1.7,20.5l-5.8,1.5l1.7-20.5L172,76.3z"/>
		
			<linearGradient id="SVGID_56_" gradientUnits="userSpaceOnUse" x1="170.4062" y1="139.0583" x2="188.1962" y2="136.3083" gradientTransform="matrix(1 -7.000000e-02 0 -1 0 233.942)">
			<stop  offset="0" style="stop-color:#00BEE7"/>
			<stop  offset="0.17" style="stop-color:#20AFDC"/>
			<stop  offset="0.33" style="stop-color:#0087B4"/>
			<stop  offset="0.5" style="stop-color:#0073A1"/>
			<stop  offset="0.67" style="stop-color:#00527D"/>
			<stop  offset="0.83" style="stop-color:#144069"/>
			<stop  offset="1" style="stop-color:#192951"/>
		</linearGradient>
		<path class="st58" d="M194.1,72.3L194.1,72.3L194.1,72.3L194.1,72.3l-6.1-5l-15.6,3.8l-0.9,5.6l4.8,3.9L175.1,96l6,4.9l6.5-1.6
			l1.7-20.5l4.9-1.2L194.1,72.3z M182.9,73.6l-1.7,20.5l-5.8,1.5l1.7-20.5l-5.1,1.3l0.8-4.9l14.9-3.7l0.1,4.7L182.9,73.6z"/>
		
			<linearGradient id="SVGID_57_" gradientUnits="userSpaceOnUse" x1="111.7004" y1="59.9582" x2="111.7004" y2="75.8082" gradientTransform="matrix(1 0 0 -1 0 155.2763)">
			<stop  offset="0" style="stop-color:#FFC10E"/>
			<stop  offset="0.17" style="stop-color:#FCB813"/>
			<stop  offset="0.34" style="stop-color:#FBAE17"/>
			<stop  offset="0.5" style="stop-color:#F89C1C"/>
			<stop  offset="0.67" style="stop-color:#F58A1F"/>
			<stop  offset="0.83" style="stop-color:#F26F21"/>
			<stop  offset="1" style="stop-color:#EF4E23"/>
		</linearGradient>
		<path class="st59" d="M107.5,83.4L107.5,83.4c0-0.1,0-0.1,0-0.2c0.2-2.3,2.3-4.1,4.7-3.8c2,0.2,3.6,1.8,3.8,3.8c0,0,0,0.1,0,0.1
			v0.1c0,0.1,0,0.2,0,0.2v0.2c0,1.1-0.3,2.1-0.8,3.1c-0.3-0.2-0.6-0.5-0.8-0.8c-1.1,7.7-2.6,9.6-2.6,9.7s-1.5-2-2.6-9.7
			c-0.3,0.3-0.5,0.6-0.8,0.8c-0.5-0.9-0.8-2-0.8-3.1v-0.1C107.4,83.6,107.5,83.5,107.5,83.4z"/>
		<path class="st8" d="M107.8,83c0-0.3,0.1-0.7,0.2-1c0.3-0.6,0.7-1.2,1.2-1.6c0.1-0.1,0.3-0.2,0.4-0.3l0.4-0.2
			c0.3-0.2,0.6-0.3,0.9-0.3c-0.3,0.1-0.6,0.2-0.9,0.4l-0.4,0.2c-0.1,0.1-0.3,0.2-0.4,0.3c-0.5,0.4-0.9,1-1.1,1.6
			c-0.1,0.3-0.2,0.7-0.2,1c0,0.2,0,0.3,0,0.5c0,0.2,0,0.3,0,0.5c0.1,0.6,0.2,1.2,0.5,1.7l0.2-0.2l0.1-0.1l0.1-0.2l0.5-0.6l0.2-0.2
			v0.2c0.1,0.4,0.1,0.8,0.2,1.3c0,0.2,0.1,0.4,0.1,0.6l0.1,0.6c0.2,0.8,0.3,1.7,0.5,2.5c0.1,0.4,0.2,0.8,0.3,1.2l0.2,0.6l0.2,0.6
			c0.1,0.4,0.2,0.8,0.3,1.2c0.1,0.2,0.1,0.4,0.2,0.6s0.1,0.2,0.1,0.3l0,0l0.1-0.3c0.1-0.2,0.1-0.4,0.2-0.6c0.1-0.4,0.2-0.8,0.3-1.2
			c0.1-0.2,0.1-0.4,0.2-0.6l0.2-0.6c0.1-0.4,0.2-0.8,0.3-1.2c0.2-0.8,0.3-1.7,0.5-2.5l0.1-0.6c0-0.2,0.1-0.4,0.1-0.6l0.3-1.3v-0.2
			l0.2,0.2l0.5,0.6l0.1,0.1l0,0l0,0l0.1,0.1l0.2,0.2c0.3-0.7,0.5-1.4,0.5-2.2l0,0c0-0.5,0-0.9-0.2-1.3c-0.1-0.4-0.4-0.8-0.6-1.2
			c-0.1-0.2-0.3-0.3-0.5-0.5l-0.2-0.2c-0.1-0.1-0.2-0.1-0.3-0.2c-0.2-0.1-0.4-0.2-0.6-0.3c-0.2-0.1-0.4-0.2-0.7-0.2
			c0.2,0,0.5,0.1,0.7,0.2c0.2,0.1,0.4,0.2,0.6,0.3s0.2,0.1,0.3,0.2c0.1,0.1,0.2,0.1,0.3,0.2c0.2,0.1,0.3,0.3,0.5,0.5
			c0.3,0.4,0.5,0.8,0.7,1.2c0.1,0.2,0.1,0.4,0.2,0.7c0,0.2,0,0.5,0,0.7l0,0c0,0.4,0,0.8-0.1,1.2c-0.1,0.4-0.2,0.8-0.4,1.2l-0.1,0.1
			l-0.1-0.1l-0.3-0.3l-0.1-0.1l0,0l0,0l-0.1-0.1l-0.3-0.4c0,0.3-0.1,0.7-0.1,1s-0.1,0.8-0.2,1.3c-0.2,0.8-0.3,1.7-0.5,2.5
			c-0.1,0.4-0.2,0.8-0.3,1.3l-0.2,0.6l-0.2,0.6c-0.1,0.4-0.2,0.8-0.3,1.2c-0.1,0.2-0.1,0.4-0.2,0.6c-0.1,0.2-0.2,0.4-0.3,0.6
			l-0.1,0.2l-0.1-0.2c-0.1-0.2-0.2-0.4-0.3-0.6c-0.1-0.2-0.2-0.4-0.2-0.6c-0.1-0.4-0.2-0.8-0.3-1.2l-0.2-0.6l-0.2-0.6
			c-0.1-0.4-0.2-0.8-0.3-1.3c-0.2-0.8-0.3-1.7-0.5-2.5c-0.1-0.4-0.2-0.8-0.2-1.3s-0.1-0.7-0.1-1l-0.3,0.4c-0.1,0.1-0.2,0.2-0.2,0.3
			l-0.3,0.3l-0.1,0.1l-0.1-0.1c-0.3-0.6-0.4-1.3-0.5-1.9c0-0.2,0-0.3,0-0.5C107.9,83.4,107.9,83.2,107.8,83z"/>
		
			<linearGradient id="SVGID_58_" gradientUnits="userSpaceOnUse" x1="1.0287" y1="28.4397" x2="175.7687" y2="5.7597" gradientTransform="matrix(1 0 0 -1 0 155.2763)">
			<stop  offset="0" style="stop-color:#00BEE7"/>
			<stop  offset="0.17" style="stop-color:#20AFDC"/>
			<stop  offset="0.33" style="stop-color:#0087B4"/>
			<stop  offset="0.5" style="stop-color:#0073A1"/>
			<stop  offset="0.67" style="stop-color:#00527D"/>
			<stop  offset="0.83" style="stop-color:#144069"/>
			<stop  offset="1" style="stop-color:#192951"/>
		</linearGradient>
		<path class="st60" d="M62,137.7l0.2-2.5l-0.8,0.2l-0.2,2.5l-1.2,0.3l0.5-6.1l1.2-0.3l-0.2,2.4l0.8-0.2l0.2-2.4l1.2-0.3l-0.5,6.1
			L62,137.7z"/>
		
			<linearGradient id="SVGID_59_" gradientUnits="userSpaceOnUse" x1="1.1779" y1="29.5635" x2="175.9179" y2="6.8835" gradientTransform="matrix(1 0 0 -1 0 155.2763)">
			<stop  offset="0" style="stop-color:#00BEE7"/>
			<stop  offset="0.17" style="stop-color:#20AFDC"/>
			<stop  offset="0.33" style="stop-color:#0087B4"/>
			<stop  offset="0.5" style="stop-color:#0073A1"/>
			<stop  offset="0.67" style="stop-color:#00527D"/>
			<stop  offset="0.83" style="stop-color:#144069"/>
			<stop  offset="1" style="stop-color:#192951"/>
		</linearGradient>
		<path class="st61" d="M66,135.6l-0.9,0.2l-0.3,1.2l-1.3,0.3l1.6-6.4l1.5-0.3l0.7,5.8l-1.3,0.3L66,135.6z M65.6,133.6l-0.2,1
			l0.6-0.1v-1v-1.2h-0.1L65.6,133.6z"/>
		
			<linearGradient id="SVGID_60_" gradientUnits="userSpaceOnUse" x1="1.3887" y1="31.1998" x2="176.1287" y2="8.5298" gradientTransform="matrix(1 0 0 -1 0 155.2763)">
			<stop  offset="0" style="stop-color:#00BEE7"/>
			<stop  offset="0.17" style="stop-color:#20AFDC"/>
			<stop  offset="0.33" style="stop-color:#0087B4"/>
			<stop  offset="0.5" style="stop-color:#0073A1"/>
			<stop  offset="0.67" style="stop-color:#00527D"/>
			<stop  offset="0.83" style="stop-color:#144069"/>
			<stop  offset="1" style="stop-color:#192951"/>
		</linearGradient>
		<path class="st62" d="M70.1,129.9l1.3-0.3l-1.7,6.4l-1.5,0.3l-0.7-5.8l1.3-0.3l0.2,2.4l0.1,1.7h0.1l0.3-1.8L70.1,129.9z"/>
		
			<linearGradient id="SVGID_61_" gradientUnits="userSpaceOnUse" x1="1.4885" y1="31.9484" x2="176.2285" y2="9.2784" gradientTransform="matrix(1 0 0 -1 0 155.2763)">
			<stop  offset="0" style="stop-color:#00BEE7"/>
			<stop  offset="0.17" style="stop-color:#20AFDC"/>
			<stop  offset="0.33" style="stop-color:#0087B4"/>
			<stop  offset="0.5" style="stop-color:#0073A1"/>
			<stop  offset="0.67" style="stop-color:#00527D"/>
			<stop  offset="0.83" style="stop-color:#144069"/>
			<stop  offset="1" style="stop-color:#192951"/>
		</linearGradient>
		<path class="st63" d="M72.9,134.1l-0.9,0.2l-0.3,1.2l-1.3,0.3l1.6-6.4l1.5-0.3l0.7,5.9l-1.3,0.3L72.9,134.1z M72.5,132.1l-0.2,1
			l0.6-0.1V132v-1.2l0,0L72.5,132.1z"/>
		
			<linearGradient id="SVGID_62_" gradientUnits="userSpaceOnUse" x1="1.6792" y1="33.4831" x2="176.4191" y2="10.8031" gradientTransform="matrix(1 0 0 -1 0 155.2763)">
			<stop  offset="0" style="stop-color:#00BEE7"/>
			<stop  offset="0.17" style="stop-color:#20AFDC"/>
			<stop  offset="0.33" style="stop-color:#0087B4"/>
			<stop  offset="0.5" style="stop-color:#0073A1"/>
			<stop  offset="0.67" style="stop-color:#00527D"/>
			<stop  offset="0.83" style="stop-color:#144069"/>
			<stop  offset="1" style="stop-color:#192951"/>
		</linearGradient>
		<path class="st64" d="M76.7,128.4c0.4-0.1,0.8-0.1,1.2,0.1c0.3,0.2,0.4,0.6,0.3,0.9v0.1c0,0,0,0.1,0,0.1l-1.2,0.5
			c0-0.1,0-0.3-0.1-0.4c-0.1-0.1-0.2-0.1-0.3-0.1c-0.1,0-0.1,0-0.2,0.1c-0.1,0-0.1,0.1-0.1,0.2c0,0.1-0.1,0.1-0.1,0.2
			c0,0,0,0.1,0,0.1l-0.3,3.1c0,0.1,0,0.2,0.1,0.2c0,0.1,0.1,0.1,0.3,0c0.1,0,0.2-0.1,0.3-0.2c0.1-0.1,0.2-0.3,0.2-0.5l1.2-0.1
			c0,0.5-0.2,0.9-0.5,1.3c-0.3,0.4-0.7,0.6-1.2,0.7c-0.4,0.1-0.8,0.1-1.2-0.1c-0.3-0.3-0.4-0.7-0.3-1.1l0.2-3.1
			c0-0.5,0.2-0.9,0.5-1.2C75.8,128.7,76.2,128.5,76.7,128.4z"/>
		
			<linearGradient id="SVGID_63_" gradientUnits="userSpaceOnUse" x1="1.7987" y1="34.4099" x2="176.5388" y2="11.7399" gradientTransform="matrix(1 0 0 -1 0 155.2763)">
			<stop  offset="0" style="stop-color:#00BEE7"/>
			<stop  offset="0.17" style="stop-color:#20AFDC"/>
			<stop  offset="0.33" style="stop-color:#0087B4"/>
			<stop  offset="0.5" style="stop-color:#0073A1"/>
			<stop  offset="0.67" style="stop-color:#00527D"/>
			<stop  offset="0.83" style="stop-color:#144069"/>
			<stop  offset="1" style="stop-color:#192951"/>
		</linearGradient>
		<path class="st65" d="M78.3,134.1l0.5-6.1l1.2-0.3l-0.5,6.1L78.3,134.1z"/>
		
			<linearGradient id="SVGID_64_" gradientUnits="userSpaceOnUse" x1="1.8908" y1="35.1055" x2="176.6308" y2="12.4255" gradientTransform="matrix(1 0 0 -1 0 155.2763)">
			<stop  offset="0" style="stop-color:#00BEE7"/>
			<stop  offset="0.17" style="stop-color:#20AFDC"/>
			<stop  offset="0.33" style="stop-color:#0087B4"/>
			<stop  offset="0.5" style="stop-color:#0073A1"/>
			<stop  offset="0.67" style="stop-color:#00527D"/>
			<stop  offset="0.83" style="stop-color:#144069"/>
			<stop  offset="1" style="stop-color:#192951"/>
		</linearGradient>
		<path class="st66" d="M80.2,133.6l0.4-6.1l1.2-0.3l-0.4,5l1.6-0.4l-0.1,1.2L80.2,133.6z"/>
		
			<linearGradient id="SVGID_65_" gradientUnits="userSpaceOnUse" x1="2.039" y1="36.1919" x2="176.779" y2="13.5219" gradientTransform="matrix(1 0 0 -1 0 155.2763)">
			<stop  offset="0" style="stop-color:#00BEE7"/>
			<stop  offset="0.17" style="stop-color:#20AFDC"/>
			<stop  offset="0.33" style="stop-color:#0087B4"/>
			<stop  offset="0.5" style="stop-color:#0073A1"/>
			<stop  offset="0.67" style="stop-color:#00527D"/>
			<stop  offset="0.83" style="stop-color:#144069"/>
			<stop  offset="1" style="stop-color:#192951"/>
		</linearGradient>
		<path class="st67" d="M83.4,132.9l0.5-6.1l1.2-0.3l-0.5,6.1L83.4,132.9z"/>
		
			<linearGradient id="SVGID_66_" gradientUnits="userSpaceOnUse" x1="2.1679" y1="37.2433" x2="176.9079" y2="14.5733" gradientTransform="matrix(1 0 0 -1 0 155.2763)">
			<stop  offset="0" style="stop-color:#00BEE7"/>
			<stop  offset="0.17" style="stop-color:#20AFDC"/>
			<stop  offset="0.33" style="stop-color:#0087B4"/>
			<stop  offset="0.5" style="stop-color:#0073A1"/>
			<stop  offset="0.67" style="stop-color:#00527D"/>
			<stop  offset="0.83" style="stop-color:#144069"/>
			<stop  offset="1" style="stop-color:#192951"/>
		</linearGradient>
		<path class="st68" d="M86.9,128l1-2.1l1.3-0.3l-1.5,2.8l1.2,3.3l-1.3,0.3l-0.7-2.2l-0.3,0.6l-0.1,1.8l-1.2,0.3l0.5-6.1l1.2-0.3
			L86.9,128L86.9,128z"/>
		
			<linearGradient id="SVGID_67_" gradientUnits="userSpaceOnUse" x1="1.8983" y1="35.1161" x2="176.6382" y2="12.4461" gradientTransform="matrix(1 0 0 -1 0 155.2763)">
			<stop  offset="0" style="stop-color:#00BEE7"/>
			<stop  offset="0.17" style="stop-color:#20AFDC"/>
			<stop  offset="0.33" style="stop-color:#0087B4"/>
			<stop  offset="0.5" style="stop-color:#0073A1"/>
			<stop  offset="0.67" style="stop-color:#00527D"/>
			<stop  offset="0.83" style="stop-color:#144069"/>
			<stop  offset="1" style="stop-color:#192951"/>
		</linearGradient>
		<path class="st69" d="M89.7,132.9L89,133l0.4-1.4l-0.3,0.1l0.1-1.4l1.2-0.3l-0.1,1.3L89.7,132.9z"/>
		
			<linearGradient id="SVGID_68_" gradientUnits="userSpaceOnUse" x1="2.4783" y1="39.6166" x2="177.2183" y2="16.9366" gradientTransform="matrix(1 0 0 -1 0 155.2763)">
			<stop  offset="0" style="stop-color:#00BEE7"/>
			<stop  offset="0.17" style="stop-color:#20AFDC"/>
			<stop  offset="0.33" style="stop-color:#0087B4"/>
			<stop  offset="0.5" style="stop-color:#0073A1"/>
			<stop  offset="0.67" style="stop-color:#00527D"/>
			<stop  offset="0.83" style="stop-color:#144069"/>
			<stop  offset="1" style="stop-color:#192951"/>
		</linearGradient>
		<path class="st70" d="M95.5,124.3l-0.3,4.6c0,0.5-0.2,0.9-0.5,1.3c-0.3,0.3-0.8,0.6-1.2,0.6c-1.1,0.2-1.5-0.1-1.5-1.1l0.3-4.6
			l1.2-0.3l-0.3,4.6c0,0.1,0,0.2,0.1,0.3c0.1,0,0.2,0,0.2,0c0.1,0,0.2-0.1,0.3-0.1c0.1-0.1,0.1-0.2,0.1-0.3l0.3-4.6L95.5,124.3z"/>
		
			<linearGradient id="SVGID_69_" gradientUnits="userSpaceOnUse" x1="2.6091" y1="40.6229" x2="177.3491" y2="17.9529" gradientTransform="matrix(1 0 0 -1 0 155.2763)">
			<stop  offset="0" style="stop-color:#00BEE7"/>
			<stop  offset="0.17" style="stop-color:#20AFDC"/>
			<stop  offset="0.33" style="stop-color:#0087B4"/>
			<stop  offset="0.5" style="stop-color:#0073A1"/>
			<stop  offset="0.67" style="stop-color:#00527D"/>
			<stop  offset="0.83" style="stop-color:#144069"/>
			<stop  offset="1" style="stop-color:#192951"/>
		</linearGradient>
		<path class="st71" d="M95.4,130.3l0.1-1.1l1.8-4.2l-1.4,0.3l0.1-1.1l2.8-0.6l-0.1,1.1l-1.8,4.2l1.5-0.3l-0.1,1.1L95.4,130.3z"/>
		
			<linearGradient id="SVGID_70_" gradientUnits="userSpaceOnUse" x1="2.7387" y1="41.5999" x2="177.4787" y2="18.9199" gradientTransform="matrix(1 0 0 -1 0 155.2763)">
			<stop  offset="0" style="stop-color:#00BEE7"/>
			<stop  offset="0.17" style="stop-color:#20AFDC"/>
			<stop  offset="0.33" style="stop-color:#0087B4"/>
			<stop  offset="0.5" style="stop-color:#0073A1"/>
			<stop  offset="0.67" style="stop-color:#00527D"/>
			<stop  offset="0.83" style="stop-color:#144069"/>
			<stop  offset="1" style="stop-color:#192951"/>
		</linearGradient>
		<path class="st72" d="M100.8,127.9l-0.9,0.2l-0.3,1.2l-1.3,0.3l1.6-6.4l1.5-0.3l0.7,5.9l-1.3,0.3L100.8,127.9z M100.3,125.9
			l-0.2,1l0.6-0.1v-1v-1.2h-0.1L100.3,125.9z"/>
		
			<linearGradient id="SVGID_71_" gradientUnits="userSpaceOnUse" x1="2.9341" y1="43.1141" x2="177.6741" y2="20.4441" gradientTransform="matrix(1 0 0 -1 0 155.2763)">
			<stop  offset="0" style="stop-color:#00BEE7"/>
			<stop  offset="0.17" style="stop-color:#20AFDC"/>
			<stop  offset="0.33" style="stop-color:#0087B4"/>
			<stop  offset="0.5" style="stop-color:#0073A1"/>
			<stop  offset="0.67" style="stop-color:#00527D"/>
			<stop  offset="0.83" style="stop-color:#144069"/>
			<stop  offset="1" style="stop-color:#192951"/>
		</linearGradient>
		<path class="st73" d="M103.9,124.6l0.3-1.1l0.4-1.3l1.3-0.3l-1.5,3.9l-0.2,2.5l-1.2,0.2l0.2-2.5l-0.9-3.4l1.3-0.3l0.2,1.2
			L103.9,124.6L103.9,124.6z"/>
		
			<linearGradient id="SVGID_72_" gradientUnits="userSpaceOnUse" x1="3.1581" y1="44.8848" x2="177.8981" y2="22.2048" gradientTransform="matrix(1 0 0 -1 0 155.2763)">
			<stop  offset="0" style="stop-color:#00BEE7"/>
			<stop  offset="0.17" style="stop-color:#20AFDC"/>
			<stop  offset="0.33" style="stop-color:#0087B4"/>
			<stop  offset="0.5" style="stop-color:#0073A1"/>
			<stop  offset="0.67" style="stop-color:#00527D"/>
			<stop  offset="0.83" style="stop-color:#144069"/>
			<stop  offset="1" style="stop-color:#192951"/>
		</linearGradient>
		<path class="st74" d="M109.6,121.1l1.3-0.3l-1.7,6.4l-1.5,0.3l-0.7-5.9l1.3-0.3l0.2,2.4l0.1,1.7h0.1l0.3-1.8L109.6,121.1z"/>
		
			<linearGradient id="SVGID_73_" gradientUnits="userSpaceOnUse" x1="3.2985" y1="45.9576" x2="178.0385" y2="23.2776" gradientTransform="matrix(1 0 0 -1 0 155.2763)">
			<stop  offset="0" style="stop-color:#00BEE7"/>
			<stop  offset="0.17" style="stop-color:#20AFDC"/>
			<stop  offset="0.33" style="stop-color:#0087B4"/>
			<stop  offset="0.5" style="stop-color:#0073A1"/>
			<stop  offset="0.67" style="stop-color:#00527D"/>
			<stop  offset="0.83" style="stop-color:#144069"/>
			<stop  offset="1" style="stop-color:#192951"/>
		</linearGradient>
		<path class="st75" d="M110.8,126.9l0.4-6.1l2.8-0.6l-0.1,1.1l-1.6,0.4l-0.1,1.3l1.4-0.3l-0.1,1.2l-1.4,0.3l-0.1,1.4l1.6-0.4
			l-0.1,1.1L110.8,126.9z"/>
		
			<linearGradient id="SVGID_74_" gradientUnits="userSpaceOnUse" x1="3.5066" y1="47.5737" x2="178.2466" y2="24.8937" gradientTransform="matrix(1 0 0 -1 0 155.2763)">
			<stop  offset="0" style="stop-color:#00BEE7"/>
			<stop  offset="0.17" style="stop-color:#20AFDC"/>
			<stop  offset="0.33" style="stop-color:#0087B4"/>
			<stop  offset="0.5" style="stop-color:#0073A1"/>
			<stop  offset="0.67" style="stop-color:#00527D"/>
			<stop  offset="0.83" style="stop-color:#144069"/>
			<stop  offset="1" style="stop-color:#192951"/>
		</linearGradient>
		<path class="st76" d="M117.4,120.5l-0.4,5l-1.2,0.3l0.4-5l-1,0.2l0.1-1.1l3.1-0.7l-0.1,1.2L117.4,120.5z"/>
		
			<linearGradient id="SVGID_75_" gradientUnits="userSpaceOnUse" x1="3.6387" y1="48.5598" x2="178.3787" y2="25.8898" gradientTransform="matrix(1 0 0 -1 0 155.2763)">
			<stop  offset="0" style="stop-color:#00BEE7"/>
			<stop  offset="0.17" style="stop-color:#20AFDC"/>
			<stop  offset="0.33" style="stop-color:#0087B4"/>
			<stop  offset="0.5" style="stop-color:#0073A1"/>
			<stop  offset="0.67" style="stop-color:#00527D"/>
			<stop  offset="0.83" style="stop-color:#144069"/>
			<stop  offset="1" style="stop-color:#192951"/>
		</linearGradient>
		<path class="st77" d="M118.3,125.2l0.5-6.1l2.8-0.6l-0.1,1.1l-1.6,0.4l-0.1,1.3l1.4-0.3l-0.1,1.1l-1.4,0.3l-0.1,1.4l1.6-0.4
			l-0.1,1.2L118.3,125.2z"/>
		
			<linearGradient id="SVGID_76_" gradientUnits="userSpaceOnUse" x1="3.7988" y1="49.8106" x2="178.5388" y2="27.1406" gradientTransform="matrix(1 0 0 -1 0 155.2763)">
			<stop  offset="0" style="stop-color:#00BEE7"/>
			<stop  offset="0.17" style="stop-color:#20AFDC"/>
			<stop  offset="0.33" style="stop-color:#0087B4"/>
			<stop  offset="0.5" style="stop-color:#0073A1"/>
			<stop  offset="0.67" style="stop-color:#00527D"/>
			<stop  offset="0.83" style="stop-color:#144069"/>
			<stop  offset="1" style="stop-color:#192951"/>
		</linearGradient>
		<path class="st78" d="M123.3,119.9l1-2.1l1.3-0.3l-1.5,2.8l1.2,3.2l-1.3,0.3l-0.7-2.2l-0.3,0.6l0,1.8l-1.2,0.3l0.5-6.1l1.2-0.3
			L123.3,119.9L123.3,119.9z"/>
		
			<linearGradient id="SVGID_77_" gradientUnits="userSpaceOnUse" x1="3.97" y1="51.1295" x2="178.71" y2="28.4595" gradientTransform="matrix(1 0 0 -1 0 155.2763)">
			<stop  offset="0" style="stop-color:#00BEE7"/>
			<stop  offset="0.17" style="stop-color:#20AFDC"/>
			<stop  offset="0.33" style="stop-color:#0087B4"/>
			<stop  offset="0.5" style="stop-color:#0073A1"/>
			<stop  offset="0.67" style="stop-color:#00527D"/>
			<stop  offset="0.83" style="stop-color:#144069"/>
			<stop  offset="1" style="stop-color:#192951"/>
		</linearGradient>
		<path class="st79" d="M127.9,119.9l0.2-2.9l1.2-0.3l-0.5,6.1l-1,0.2l-0.6-1.6l-0.4-1.1l0,0l-0.2,2.9l-1.2,0.3l0.5-6.1l1.1-0.2
			l0.6,1.6L127.9,119.9L127.9,119.9z"/>
		
			<linearGradient id="SVGID_78_" gradientUnits="userSpaceOnUse" x1="4.1486" y1="52.4888" x2="178.8886" y2="29.8088" gradientTransform="matrix(1 0 0 -1 0 155.2763)">
			<stop  offset="0" style="stop-color:#00BEE7"/>
			<stop  offset="0.17" style="stop-color:#20AFDC"/>
			<stop  offset="0.33" style="stop-color:#0087B4"/>
			<stop  offset="0.5" style="stop-color:#0073A1"/>
			<stop  offset="0.67" style="stop-color:#00527D"/>
			<stop  offset="0.83" style="stop-color:#144069"/>
			<stop  offset="1" style="stop-color:#192951"/>
		</linearGradient>
		<path class="st80" d="M132.8,120.5c0,0.5-0.2,0.9-0.5,1.3c-0.3,0.3-0.8,0.6-1.2,0.6c-1,0.2-1.5-0.2-1.5-1.2l0.2-3.1
			c0-0.5,0.2-0.9,0.5-1.3c0.3-0.3,0.7-0.5,1.2-0.6c0.4-0.1,0.8-0.1,1.2,0.1c0.3,0.3,0.4,0.7,0.3,1.1L132.8,120.5z M131.8,117.6
			c0-0.1,0-0.2-0.1-0.3c-0.1,0-0.2,0-0.2,0c-0.1,0-0.2,0.1-0.3,0.1c-0.1,0.1-0.1,0.2-0.1,0.3l-0.2,3.2c0,0.1,0,0.2,0.1,0.3
			c0.1,0,0.2,0,0.3,0c0.1,0,0.2-0.1,0.3-0.2c0.1-0.1,0.1-0.2,0.1-0.3L131.8,117.6z"/>
		
			<linearGradient id="SVGID_79_" gradientUnits="userSpaceOnUse" x1="4.2781" y1="53.4652" x2="179.0181" y2="30.7952" gradientTransform="matrix(1 0 0 -1 0 155.2763)">
			<stop  offset="0" style="stop-color:#00BEE7"/>
			<stop  offset="0.17" style="stop-color:#20AFDC"/>
			<stop  offset="0.33" style="stop-color:#0087B4"/>
			<stop  offset="0.5" style="stop-color:#0073A1"/>
			<stop  offset="0.67" style="stop-color:#00527D"/>
			<stop  offset="0.83" style="stop-color:#144069"/>
			<stop  offset="1" style="stop-color:#192951"/>
		</linearGradient>
		<path class="st81" d="M133.3,121.9l0.5-6.1l1.2-0.3l-0.4,5l1.6-0.4l-0.1,1.1L133.3,121.9z"/>
		
			<linearGradient id="SVGID_80_" gradientUnits="userSpaceOnUse" x1="4.459" y1="54.892" x2="179.199" y2="32.222" gradientTransform="matrix(1 0 0 -1 0 155.2763)">
			<stop  offset="0" style="stop-color:#00BEE7"/>
			<stop  offset="0.17" style="stop-color:#20AFDC"/>
			<stop  offset="0.33" style="stop-color:#0087B4"/>
			<stop  offset="0.5" style="stop-color:#0073A1"/>
			<stop  offset="0.67" style="stop-color:#00527D"/>
			<stop  offset="0.83" style="stop-color:#144069"/>
			<stop  offset="1" style="stop-color:#192951"/>
		</linearGradient>
		<path class="st82" d="M139.7,119c0,0.5-0.2,0.9-0.5,1.3c-0.3,0.3-0.8,0.6-1.2,0.6c-1,0.2-1.5-0.2-1.5-1.2l0.2-3.1
			c0-0.5,0.2-0.9,0.5-1.2c0.3-0.3,0.7-0.6,1.2-0.6c0.4-0.1,0.8-0.1,1.2,0.1c0.3,0.3,0.4,0.7,0.3,1.1L139.7,119z M138.7,116.1
			c0-0.1,0-0.2-0.1-0.3c-0.1,0-0.2,0-0.2,0c-0.1,0-0.2,0.1-0.3,0.1c-0.1,0.1-0.1,0.2-0.1,0.3l-0.2,3.2c0,0.1,0,0.2,0.1,0.3
			c0.1,0,0.2,0,0.3,0c0.1,0,0.2-0.1,0.3-0.1c0.1-0.1,0.1-0.2,0.1-0.3L138.7,116.1z"/>
		
			<linearGradient id="SVGID_81_" gradientUnits="userSpaceOnUse" x1="4.6275" y1="56.1805" x2="179.3675" y2="33.5005" gradientTransform="matrix(1 0 0 -1 0 155.2763)">
			<stop  offset="0" style="stop-color:#00BEE7"/>
			<stop  offset="0.17" style="stop-color:#20AFDC"/>
			<stop  offset="0.33" style="stop-color:#0087B4"/>
			<stop  offset="0.5" style="stop-color:#0073A1"/>
			<stop  offset="0.67" style="stop-color:#00527D"/>
			<stop  offset="0.83" style="stop-color:#144069"/>
			<stop  offset="1" style="stop-color:#192951"/>
		</linearGradient>
		<path class="st83" d="M143.3,113.6l-0.3,4.6c0,0.5-0.2,0.9-0.5,1.2c-0.3,0.3-0.7,0.6-1.2,0.7c-0.3,0.1-0.5,0.1-0.8,0
			c-0.2-0.1-0.4-0.2-0.6-0.5l1-0.9c0.1,0.1,0.1,0.2,0.2,0.2c0.1,0,0.2,0,0.2,0c0.1,0,0.2-0.1,0.3-0.2c0.1-0.1,0.1-0.2,0.1-0.3
			l0.3-4.6L143.3,113.6z"/>
		
			<linearGradient id="SVGID_82_" gradientUnits="userSpaceOnUse" x1="4.812" y1="57.6383" x2="179.552" y2="34.9583" gradientTransform="matrix(1 0 0 -1 0 155.2763)">
			<stop  offset="0" style="stop-color:#00BEE7"/>
			<stop  offset="0.17" style="stop-color:#20AFDC"/>
			<stop  offset="0.33" style="stop-color:#0087B4"/>
			<stop  offset="0.5" style="stop-color:#0073A1"/>
			<stop  offset="0.67" style="stop-color:#00527D"/>
			<stop  offset="0.83" style="stop-color:#144069"/>
			<stop  offset="1" style="stop-color:#192951"/>
		</linearGradient>
		<path class="st84" d="M143.5,119.6l0.5-6.1l1.2-0.3l-0.5,6.1L143.5,119.6z M144.1,113.2l0.1-1.1l1-0.2l-0.1,1.1L144.1,113.2z"/>
		
			<linearGradient id="SVGID_83_" gradientUnits="userSpaceOnUse" x1="4.8982" y1="58.2959" x2="179.6382" y2="35.6259" gradientTransform="matrix(1 0 0 -1 0 155.2763)">
			<stop  offset="0" style="stop-color:#00BEE7"/>
			<stop  offset="0.17" style="stop-color:#20AFDC"/>
			<stop  offset="0.33" style="stop-color:#0087B4"/>
			<stop  offset="0.5" style="stop-color:#0073A1"/>
			<stop  offset="0.67" style="stop-color:#00527D"/>
			<stop  offset="0.83" style="stop-color:#144069"/>
			<stop  offset="1" style="stop-color:#192951"/>
		</linearGradient>
		<path class="st85" d="M148.1,113.7L148,115l1.4-0.3l-0.1,1.1l-1.4,0.3l-0.2,2.5l-1.2,0.3l0.5-6.1l2.8-0.6l-0.1,1.1L148.1,113.7z"
			/>
		
			<linearGradient id="SVGID_84_" gradientUnits="userSpaceOnUse" x1="5.0484" y1="59.4471" x2="179.7884" y2="36.7771" gradientTransform="matrix(1 0 0 -1 0 155.2763)">
			<stop  offset="0" style="stop-color:#00BEE7"/>
			<stop  offset="0.17" style="stop-color:#20AFDC"/>
			<stop  offset="0.33" style="stop-color:#0087B4"/>
			<stop  offset="0.5" style="stop-color:#0073A1"/>
			<stop  offset="0.67" style="stop-color:#00527D"/>
			<stop  offset="0.83" style="stop-color:#144069"/>
			<stop  offset="1" style="stop-color:#192951"/>
		</linearGradient>
		<path class="st86" d="M149.8,118.2l0.5-6.1l2.9-0.6l-0.1,1.2l-1.6,0.4l-0.1,1.3l1.4-0.3l-0.1,1.1l-1.4,0.3l-0.1,1.4l1.6-0.4
			l-0.1,1.1L149.8,118.2z"/>
		
			<linearGradient id="SVGID_85_" gradientUnits="userSpaceOnUse" x1="5.2103" y1="60.6416" x2="179.9503" y2="37.9616" gradientTransform="matrix(1 0 0 -1 0 155.2763)">
			<stop  offset="0" style="stop-color:#00BEE7"/>
			<stop  offset="0.17" style="stop-color:#20AFDC"/>
			<stop  offset="0.33" style="stop-color:#0087B4"/>
			<stop  offset="0.5" style="stop-color:#0073A1"/>
			<stop  offset="0.67" style="stop-color:#00527D"/>
			<stop  offset="0.83" style="stop-color:#144069"/>
			<stop  offset="1" style="stop-color:#192951"/>
		</linearGradient>
		<path class="st87" d="M156.3,115c0,0.3-0.1,0.5-0.1,0.8c-0.1,0.2-0.2,0.4-0.3,0.6c-0.1,0.2-0.3,0.4-0.5,0.5
			c-0.2,0.1-0.5,0.2-0.8,0.3c-0.2,0.1-0.5,0.1-0.7,0c-0.2,0-0.3-0.1-0.5-0.2c-0.1-0.1-0.2-0.3-0.2-0.4c0-0.2,0-0.4,0-0.6l1.2-0.5
			c0,0.2,0,0.3,0.1,0.5c0,0.1,0.1,0.1,0.3,0.1c0.1,0,0.2-0.1,0.2-0.1c0.1-0.1,0.1-0.1,0.1-0.2c0-0.1,0.1-0.2,0.1-0.2
			c0-0.1,0-0.2,0-0.3c0-0.1,0-0.2,0-0.3c0-0.1-0.1-0.2-0.2-0.3c-0.1,0-0.2-0.1-0.3-0.1c-0.2,0-0.5-0.1-0.7-0.2
			c-0.2-0.1-0.3-0.2-0.4-0.3c-0.1-0.1-0.1-0.3-0.2-0.4c0-0.2,0-0.4,0-0.5c0-0.2,0.1-0.5,0.1-0.7c0.1-0.2,0.2-0.4,0.3-0.6
			c0.1-0.2,0.3-0.3,0.5-0.5c0.2-0.1,0.5-0.2,0.8-0.3c0.2-0.1,0.5-0.1,0.8,0c0.2,0,0.3,0.1,0.4,0.3c0.1,0.1,0.2,0.3,0.2,0.4
			c0,0.2,0,0.3,0,0.5l-1.2,0.5c0-0.1,0-0.2,0-0.2c0-0.1,0-0.1,0-0.2c0-0.1-0.1-0.1-0.1-0.1c-0.1,0-0.1,0-0.2,0c-0.1,0-0.1,0-0.2,0.1
			c0,0-0.1,0.1-0.1,0.2c0,0.1-0.1,0.1-0.1,0.2c0,0.1,0,0.1,0,0.2c0,0.1,0,0.1,0,0.2c0,0.1,0,0.1,0.1,0.2c0.1,0.1,0.1,0.1,0.2,0.1
			l0.4,0.1c0.2,0,0.4,0.1,0.7,0.2c0.1,0.1,0.3,0.2,0.3,0.3c0.1,0.1,0.1,0.3,0.1,0.5C156.4,114.6,156.4,114.8,156.3,115z"/>
		
			<linearGradient id="SVGID_86_" gradientUnits="userSpaceOnUse" x1="5.3672" y1="61.9178" x2="180.1072" y2="39.2378" gradientTransform="matrix(1 0 0 -1 0 155.2763)">
			<stop  offset="0" style="stop-color:#00BEE7"/>
			<stop  offset="0.17" style="stop-color:#20AFDC"/>
			<stop  offset="0.33" style="stop-color:#0087B4"/>
			<stop  offset="0.5" style="stop-color:#0073A1"/>
			<stop  offset="0.67" style="stop-color:#00527D"/>
			<stop  offset="0.83" style="stop-color:#144069"/>
			<stop  offset="1" style="stop-color:#192951"/>
		</linearGradient>
		<path class="st88" d="M158.9,111.3l-0.4,5l-1.2,0.3l0.4-5l-0.9,0.2l0.1-1.2l3.2-0.7l-0.1,1.1L158.9,111.3z"/>
		
			<linearGradient id="SVGID_87_" gradientUnits="userSpaceOnUse" x1="5.5479" y1="63.3032" x2="180.2979" y2="40.6332" gradientTransform="matrix(1 0 0 -1 0 155.2763)">
			<stop  offset="0" style="stop-color:#00BEE7"/>
			<stop  offset="0.17" style="stop-color:#20AFDC"/>
			<stop  offset="0.33" style="stop-color:#0087B4"/>
			<stop  offset="0.5" style="stop-color:#0073A1"/>
			<stop  offset="0.67" style="stop-color:#00527D"/>
			<stop  offset="0.83" style="stop-color:#144069"/>
			<stop  offset="1" style="stop-color:#192951"/>
		</linearGradient>
		<path class="st89" d="M159.8,116l0.5-6.1l1.2-0.3l-0.5,6.1L159.8,116z M160.3,109.6l0.1-1.2l1-0.2l-0.1,1.1L160.3,109.6z"/>
		
			<linearGradient id="SVGID_88_" gradientUnits="userSpaceOnUse" x1="5.6183" y1="63.8265" x2="180.3583" y2="41.1465" gradientTransform="matrix(1 0 0 -1 0 155.2763)">
			<stop  offset="0" style="stop-color:#00BEE7"/>
			<stop  offset="0.17" style="stop-color:#20AFDC"/>
			<stop  offset="0.33" style="stop-color:#0087B4"/>
			<stop  offset="0.5" style="stop-color:#0073A1"/>
			<stop  offset="0.67" style="stop-color:#00527D"/>
			<stop  offset="0.83" style="stop-color:#144069"/>
			<stop  offset="1" style="stop-color:#192951"/>
		</linearGradient>
		<path class="st90" d="M164.4,108.9l1.3-0.3L164,115l-1.5,0.3l-0.7-5.9l1.3-0.3l0.2,2.4l0.1,1.7l0,0l0.4-1.8L164.4,108.9z"/>
		
			<linearGradient id="SVGID_89_" gradientUnits="userSpaceOnUse" x1="5.7127" y1="64.533" x2="180.4527" y2="41.863" gradientTransform="matrix(1 0 0 -1 0 155.2763)">
			<stop  offset="0" style="stop-color:#00BEE7"/>
			<stop  offset="0.17" style="stop-color:#20AFDC"/>
			<stop  offset="0.33" style="stop-color:#0087B4"/>
			<stop  offset="0.5" style="stop-color:#0073A1"/>
			<stop  offset="0.67" style="stop-color:#00527D"/>
			<stop  offset="0.83" style="stop-color:#144069"/>
			<stop  offset="1" style="stop-color:#192951"/>
		</linearGradient>
		<path class="st91" d="M167.2,113.2l-0.9,0.2l-0.3,1.3l-1.3,0.3l1.6-6.4l1.5-0.3l0.7,5.8l-1.3,0.3L167.2,113.2z M166.7,111.2
			l-0.2,1l0.6-0.1l-0.1-1v-1.2h-0.1L166.7,111.2z"/>
		
			<linearGradient id="SVGID_90_" gradientUnits="userSpaceOnUse" x1="5.8689" y1="65.7812" x2="180.6189" y2="43.1112" gradientTransform="matrix(1 0 0 -1 0 155.2763)">
			<stop  offset="0" style="stop-color:#00BEE7"/>
			<stop  offset="0.17" style="stop-color:#20AFDC"/>
			<stop  offset="0.33" style="stop-color:#0087B4"/>
			<stop  offset="0.5" style="stop-color:#0073A1"/>
			<stop  offset="0.67" style="stop-color:#00527D"/>
			<stop  offset="0.83" style="stop-color:#144069"/>
			<stop  offset="1" style="stop-color:#192951"/>
		</linearGradient>
		<path class="st92" d="M168.9,113.9l0.4-6.1l1.2-0.3l-0.4,5l1.6-0.4l-0.1,1.1L168.9,113.9z"/>
		
			<linearGradient id="SVGID_91_" gradientUnits="userSpaceOnUse" x1="6.1085" y1="67.5782" x2="180.8485" y2="44.8982" gradientTransform="matrix(1 0 0 -1 0 155.2763)">
			<stop  offset="0" style="stop-color:#00BEE7"/>
			<stop  offset="0.17" style="stop-color:#20AFDC"/>
			<stop  offset="0.33" style="stop-color:#0087B4"/>
			<stop  offset="0.5" style="stop-color:#0073A1"/>
			<stop  offset="0.67" style="stop-color:#00527D"/>
			<stop  offset="0.83" style="stop-color:#144069"/>
			<stop  offset="1" style="stop-color:#192951"/>
		</linearGradient>
		<path class="st93" d="M172.1,113.2l0.5-6.1l1.2-0.3l-0.5,6.1L172.1,113.2z M172.6,106.8l0.1-1.1l1-0.2l0,1.2L172.6,106.8z"/>
	</g>
</g>
</svg>
